<?xml version="1.0" encoding="UTF-8"?>
<svg version="1.1" xmlns="http://www.w3.org/2000/svg" width="1438" height="1523">
<path d="M0 0 C4.06632337 3.75685097 6.85608376 7.63834246 9.6875 12.375 C10.57105799 13.82014844 11.45651911 15.26413482 12.34375 16.70703125 C12.78847656 17.43100098 13.23320313 18.1549707 13.69140625 18.90087891 C15.62353592 22.00021676 17.64662349 25.0340618 19.6875 28.0625 C23.86576375 34.27827101 27.97599607 40.53602052 32.0625 46.8125 C32.69647705 47.78606445 33.3304541 48.75962891 33.98364258 49.76269531 C35.30863498 51.79749919 36.63358525 53.83233051 37.95849609 55.8671875 C41.42465508 61.18622027 44.89983436 66.49934899 48.375 71.8125 C49.43763062 73.437323 49.43763062 73.437323 50.52172852 75.0949707 C51.96203547 77.29722757 53.40238387 79.49945733 54.84277344 81.70166016 C58.39575261 87.1340672 61.947835 92.56706056 65.5 98 C66.91666228 100.16666953 68.33332895 102.3333362 69.75 104.5 C174.9375 265.375 174.9375 265.375 333.25 507.5 C333.95205566 508.5737085 334.65411133 509.64741699 335.37744141 510.75366211 C336.78605786 512.90806434 338.19458731 515.06252345 339.60302734 517.21704102 C342.88150427 522.23196396 346.16076736 527.24636628 349.44329834 532.25863647 C350.97061098 534.59089286 352.49740813 536.9234865 354.02416992 539.25610352 C355.08397445 540.87483801 356.14451158 542.49309279 357.20507812 544.11132812 C359.14196855 547.07083587 361.07205636 550.03465797 363 553 C363.67514648 554.03141113 364.35029297 555.06282227 365.04589844 556.12548828 C365.68817383 557.11661621 366.33044922 558.10774414 366.9921875 559.12890625 C367.57081543 560.01779541 368.14944336 560.90668457 368.74560547 561.82250977 C370 564 370 564 370 566 C126.46 566 -117.08 566 -368 566 C-366.61318943 562.53297358 -365.64311845 560.22003699 -363.63671875 557.27734375 C-362.93518677 556.23864136 -362.93518677 556.23864136 -362.21948242 555.17895508 C-361.46115112 554.06943481 -361.46115112 554.06943481 -360.6875 552.9375 C-359.5927166 551.31580132 -358.4990034 549.69337975 -357.40625 548.0703125 C-356.84164062 547.23274414 -356.27703125 546.39517578 -355.6953125 545.53222656 C-352.98576211 541.48506979 -350.33511718 537.40034264 -347.6875 533.3125 C-346.59768189 531.63149379 -345.50783764 529.95050454 -344.41796875 528.26953125 C-343.58531494 526.9848999 -343.58531494 526.9848999 -342.73583984 525.67431641 C-339.66556576 520.94410792 -336.58216646 516.22246445 -333.5 511.5 C-328.82667116 504.33764799 -324.15883169 497.17179031 -319.5 490 C-311.71105041 478.01047013 -303.89675869 466.03748898 -296.08398438 454.06347656 C-289.54875068 444.04701266 -283.01553857 434.02928973 -276.5 424 C-268.71100744 412.01049794 -260.89675877 400.0374891 -253.08398438 388.06347656 C-246.54875068 378.04701266 -240.01553857 368.02928973 -233.5 358 C-225.71100744 346.01049794 -217.89675877 334.0374891 -210.08398438 322.06347656 C-203.54875068 312.04701266 -197.01553857 302.02928973 -190.5 292 C-182.71100744 280.01049794 -174.89675877 268.0374891 -167.08398438 256.06347656 C-160.54875068 246.04701266 -154.01553857 236.02928973 -147.5 226 C-139.71100744 214.01049794 -131.89675877 202.0374891 -124.08398438 190.06347656 C-117.01831182 179.23401623 -109.95760202 168.40141475 -102.91357422 157.55786133 C-98.14671254 150.2214882 -93.36673166 142.89370505 -88.5859375 135.56640625 C-84.55123719 129.38152615 -80.522773 123.19264363 -76.5 117 C-68.71105041 105.01047013 -60.89675869 93.03748898 -53.08398438 81.06347656 C-46.54875039 71.04701222 -40.01571338 61.02917651 -33.5 51 C-31.33362667 47.66647593 -29.16688651 44.3331905 -27 41 C-26.39655762 40.07155273 -25.79311523 39.14310547 -25.17138672 38.18652344 C-16.86030405 25.40386831 -8.49034616 12.66437109 0 0 Z " fill="#D7E26A" transform="translate(1068,612)"/>
<path d="M0 0 C2.20317553 -0.01809245 4.40639492 -0.03088295 6.60961914 -0.04150391 C8.44998497 -0.05306015 8.44998497 -0.05306015 10.32752991 -0.06484985 C15.78166417 0.03146129 21.06046045 0.75146161 26.4375 1.625 C27.5522168 1.80321289 28.66693359 1.98142578 29.81542969 2.16503906 C87.72388894 11.86294199 143.32276612 42.63561974 178.07421875 90.75 C191.88517929 110.52843303 202.94395037 131.89212226 209.1875 155.25 C209.42549316 156.12922119 209.66348633 157.00844238 209.90869141 157.91430664 C214.20763094 174.73499964 215.44160547 191.16785452 215.38768005 208.4719696 C215.39186211 210.68215876 215.39734438 212.89234577 215.40399987 215.10252887 C215.41835891 221.12455355 215.41423977 227.14644025 215.40683305 233.16847217 C215.40256925 239.01254584 215.41243509 244.85658568 215.42174067 250.700651 C215.44133492 263.38009431 215.44376888 276.05949659 215.43854547 288.73895144 C215.43397559 299.83853943 215.43460326 310.93811126 215.44038582 322.03769875 C215.44114271 323.53071891 215.44189869 325.02373908 215.44265376 326.51675925 C215.44379905 328.76704843 215.44494894 331.01733761 215.44611301 333.26762678 C215.4568071 354.169809 215.46155458 375.07198587 215.45364285 395.97416973 C215.45334567 396.76092328 215.4530485 397.54767684 215.45274232 398.35827141 C215.45029378 404.7458764 215.44768199 411.13348134 215.44505819 417.52108626 C215.43496029 442.42383248 215.44330693 467.32651124 215.46655273 492.22924805 C215.49267392 520.25715753 215.50546019 548.28502642 215.49836498 576.31294852 C215.49764901 579.30637315 215.49697461 582.29979779 215.49632454 585.29322243 C215.49615473 586.03018943 215.49598492 586.76715642 215.49580997 587.52645576 C215.49351509 598.6103873 215.50144507 609.69428092 215.51461601 620.77820396 C215.52958449 633.39674128 215.53029438 646.01519025 215.5125451 658.63372578 C215.50406428 665.06306113 215.5018139 671.49222823 215.51719666 677.92155457 C215.53114115 683.82316051 215.52615633 689.72445561 215.50695742 695.62604401 C215.5032268 697.74499991 215.50603296 699.8639813 215.51656907 701.98291429 C215.61850097 724.07849018 212.22620186 745.10563339 205 766 C204.57203125 767.24265625 204.1440625 768.4853125 203.703125 769.765625 C186.83497625 814.81350461 154.03006923 849.46357652 114 875 C113.09765625 875.58523438 112.1953125 876.17046875 111.265625 876.7734375 C109 878 109 878 106 878 C104.58398438 876.34887695 104.58398438 876.34887695 103.09375 873.98828125 C102.52495117 873.10060059 101.95615234 872.21291992 101.37011719 871.29833984 C100.75297852 870.3130127 100.13583984 869.32768555 99.5 868.3125 C98.14135267 866.18573288 96.78194222 864.05945313 95.421875 861.93359375 C94.69465329 860.79020702 93.96743989 859.646815 93.24023438 858.50341797 C89.85755765 853.19859757 86.39651526 847.94506409 82.94091797 842.68759155 C80.92139294 839.61385003 78.90634993 836.5371718 76.890625 833.4609375 C76.07359007 832.21450357 75.25653279 830.96808429 74.43945312 829.72167969 C70.85313223 824.25059007 67.26834944 818.77849278 63.68347168 813.30645752 C61.7057128 810.28759575 59.72785112 807.26880133 57.75 804.25 C56.95833284 803.04166699 56.16666618 801.83333365 55.375 800.625 C54.983125 800.026875 54.59125 799.42875 54.1875 798.8125 C50.62499988 793.37499982 50.62499988 793.37499982 49.43756104 791.56259155 C48.64569288 790.35395176 47.85382276 789.14531325 47.06195068 787.93667603 C45.08585068 784.9205421 43.10978454 781.904386 41.13378906 778.88818359 C37.53534032 773.39550684 33.93663266 767.90300055 30.33666992 762.41131592 C28.69965419 759.91402839 27.0628344 757.41661247 25.42602539 754.91918945 C24.32001085 753.23181125 23.21372551 751.54461055 22.10742188 749.85742188 C20.66257417 747.65281744 19.23454345 745.43710588 17.82297093 743.21104914 C15.79935418 740.09748122 13.60186119 737.19399183 11.29846185 734.28232044 C-0.17226183 719.21019387 -2.18534376 706.75827609 -1.83399289 688.17140525 C-1.78160091 684.49159059 -1.81820343 680.81235562 -1.84265524 677.13239521 C-1.87350678 670.70664094 -1.84955679 664.28298689 -1.78808212 657.8574791 C-1.69693488 648.30370954 -1.69310113 638.75124273 -1.70621195 629.19711759 C-1.72584734 613.12032091 -1.67608112 597.04445417 -1.58595085 580.96792793 C-1.4970165 565.06374047 -1.43942596 549.15994084 -1.42315865 533.25550652 C-1.42212755 532.26446323 -1.42109646 531.27341995 -1.42003412 530.25234505 C-1.41495871 525.21877929 -1.4104381 520.1852132 -1.40613098 515.15164673 C-1.37467375 479.55306449 -1.27375114 443.95498739 -1.1315918 408.35668945 C-0.99369638 373.78607864 -0.88750571 339.21560636 -0.82397461 304.64477539 C-0.82200172 303.57805646 -0.82002882 302.51133753 -0.81799615 301.41229378 C-0.79821735 290.69929171 -0.77908029 279.98628857 -0.76041326 269.27328451 C-0.72237604 247.45211537 -0.68005727 225.63095523 -0.63514709 203.80979919 C-0.63308775 202.80662679 -0.6310284 201.80345439 -0.62890664 200.76988283 C-0.49103305 133.84637858 -0.2533711 66.92315438 0 0 Z " fill="#3AAFC9" transform="translate(1172,0)"/>
<path d="M0 0 C69.3 0 138.6 0 210 0 C210.42152401 59.05937395 210.42152401 59.05937395 210.53865051 77.57228088 C210.54279452 78.22641254 210.54693853 78.8805442 210.55120811 79.55449803 C210.69050169 101.60185797 210.80069532 123.649264 210.88920593 145.69688416 C210.89355473 146.77737215 210.89355473 146.77737215 210.89799138 147.87968818 C210.960862 163.53932954 211.01903301 179.19898506 211.07237192 194.85866171 C211.09856293 202.53964805 211.12579098 210.22063056 211.15356445 217.90161133 C211.15768336 219.04805475 211.15768336 219.04805475 211.16188548 220.21765864 C211.2511616 244.93144945 211.40873648 269.64422309 211.60224164 294.35739924 C211.8009517 319.7818625 211.92973768 345.20576431 211.97221479 370.63099091 C211.97826486 374.23308001 211.98510319 377.83516722 211.9924221 381.43725395 C211.99383799 382.14610319 211.99525387 382.85495242 211.99671266 383.58528193 C212.02140124 394.93510224 212.11844489 406.28317166 212.24347271 417.63228161 C212.36800506 429.07963383 212.41242577 440.52459938 212.38352893 451.97272999 C212.37017116 458.16170885 212.38955854 464.34561026 212.50331497 470.53366852 C213.01184381 499.61490053 211.10714381 519.818846 191.43793809 542.16072261 C188.16359201 545.97409951 185.43256304 550.04457733 182.7265625 554.26953125 C181.86983939 555.54324347 181.01031192 556.81507962 180.14648438 558.08398438 C179.30598863 559.32682227 178.46549387 560.56966083 177.625 561.8125 C176.67253783 563.2207111 175.72006344 564.62891393 174.76757812 566.03710938 C172.81408184 568.92526202 170.86063488 571.81344801 168.90722656 574.70166016 C164.58373563 581.09406642 160.25958693 587.48602771 155.93548584 593.87802124 C153.54029676 597.41866247 151.14515056 600.95933271 148.75 604.5 C147.79166687 605.91666681 146.83333354 607.33333347 145.875 608.75 C145.400625 609.45125 144.92625 610.1525 144.4375 610.875 C48.125 753.25 48.125 753.25 46.68777466 755.3745575 C45.72848065 756.79266864 44.76923186 758.21081037 43.81002808 759.62898254 C41.42926107 763.1487997 39.04773635 766.66809916 36.66455078 770.1862793 C32.17128053 776.82123195 27.68622939 783.46136758 23.22613525 790.11868286 C21.11965771 793.26193795 19.00908712 796.40243414 16.89819336 799.54272461 C15.89337473 801.04004771 14.89056193 802.5387191 13.88989258 804.03881836 C12.50197281 806.11917127 11.10719781 808.19477046 9.7109375 810.26953125 C9.30672577 810.87940384 8.90251404 811.48927643 8.48605347 812.11763 C5.89896503 815.94322969 3.35130168 818.64869832 0 822 C0 550.74 0 279.48 0 0 Z " fill="#3AAFC9" transform="translate(191,14)"/>
<path d="M0 0 C1.88482338 0.00539291 1.88482338 0.00539291 3.807724 0.01089478 C5.24106834 0.01782852 5.24106834 0.01782852 6.70336914 0.02490234 C6.87478699 68.34625258 7.03377869 136.66762851 7.12680054 204.98913574 C7.12818111 206.00052812 7.12956168 207.0119205 7.13098408 208.05396114 C7.16091408 230.03494124 7.18861577 252.01592362 7.21402244 273.99690941 C7.22649566 284.77658594 7.23946121 295.55626186 7.25268555 306.3359375 C7.25399314 307.40863725 7.25530073 308.481337 7.25664794 309.58654281 C7.29925139 344.34759439 7.3743569 379.10848327 7.46634135 413.86943632 C7.56070595 449.59478627 7.62223251 485.32004621 7.64251904 521.04551868 C7.64540053 526.09301386 7.6486569 531.14050874 7.65214157 536.18800354 C7.6528158 537.18140997 7.65349003 538.17481639 7.65418469 539.19832605 C7.66599584 555.18098804 7.71235983 571.16337147 7.77168948 587.14591992 C7.83061617 603.21899054 7.8530355 619.29178537 7.83838291 635.36496019 C7.83078462 644.91122539 7.85098395 654.45648013 7.91134457 664.0025626 C7.94894588 670.38619599 7.94993566 676.76917055 7.92168728 683.15285007 C7.90664119 686.78635504 7.90700725 690.41795471 7.95220096 694.05125231 C8.14593279 710.57509761 7.42011269 722.06427801 -3.29663086 735.02490234 C-4.55270961 736.91391058 -5.78985357 738.81593059 -6.99194336 740.73974609 C-8.13368244 742.48160913 -9.27692464 744.2224878 -10.42163086 745.96240234 C-14.54175818 752.2392172 -18.63239482 758.53144091 -22.64038086 764.88037109 C-23.36284727 766.02174566 -24.08534052 767.16310323 -24.80786133 768.30444336 C-26.18731769 770.4877063 -27.56158944 772.67425618 -28.92993164 774.86450195 C-32.02996462 779.76395197 -34.92454399 784.18885678 -39.29663086 788.02490234 C-45.66598119 778.21448351 -51.99655195 768.37996187 -58.29663086 758.52490234 C-62.77899875 751.51336256 -67.26715384 744.50611463 -71.79663086 737.52490234 C-77.0326703 729.45467641 -82.21270683 721.34891759 -87.39428711 713.24365234 C-91.17860909 707.32661 -94.97372588 701.41708617 -98.79663086 695.52490234 C-104.0326703 687.45467641 -109.21270683 679.34891759 -114.39428711 671.24365234 C-118.1786096 665.3266092 -121.9738235 659.41715 -125.79663086 653.52490234 C-133.72500854 641.30104773 -141.55177038 629.0117533 -149.39916992 616.73583984 C-156.26725906 605.99303313 -163.13536565 595.25083947 -170.07519531 584.55419922 C-174.87465233 577.14876265 -179.62149013 569.70970127 -184.37451172 562.27441406 C-188.75577707 555.42374631 -193.15320996 548.58405493 -197.58374023 541.76513672 C-198.35790285 540.5726457 -199.12430843 539.3750727 -199.88180029 538.17192322 C-200.88182313 536.65437761 -201.94305625 535.17634853 -203.04438818 533.73064512 C-208.52938196 526.13176126 -209.2914362 520.18799802 -209.15859985 510.9669342 C-209.16381097 509.57337286 -209.17208875 508.17982025 -209.18313825 506.78629297 C-209.20447499 502.98414797 -209.18253218 499.18333249 -209.15306735 495.38128793 C-209.12889482 491.26991524 -209.14534879 487.15867224 -209.15661621 483.04727173 C-209.17229779 475.00133229 -209.15078522 466.95590491 -209.11662765 458.91003943 C-209.07820403 449.52347002 -209.07704149 440.13700465 -209.07735722 430.75037008 C-209.07667086 413.98589654 -209.04257989 397.22165782 -208.98950195 380.45727539 C-208.9381464 364.22677393 -208.90973846 347.99645303 -208.9074707 331.76586914 C-208.90732785 330.76747566 -208.90718499 329.76908218 -208.90703781 328.74043436 C-208.90689919 327.74369396 -208.90676058 326.74695356 -208.90661776 325.72000891 C-208.90632734 323.71264938 -208.90602486 321.70528986 -208.90571022 319.69793034 C-208.90555518 318.70772943 -208.90540014 317.71752853 -208.90524039 316.69732154 C-208.90178919 301.18575974 -208.87622545 285.67422474 -208.84885413 270.16268962 C-208.83928507 264.56092351 -208.83313132 258.95916579 -208.82955356 253.3573928 C-208.82385616 244.46110553 -208.80854163 235.5649506 -208.77372737 226.6687255 C-208.75802597 222.60952916 -208.74670637 218.55046536 -208.74845505 214.49123573 C-208.75295501 193.75596455 -208.03448615 173.7878939 -202.23413086 153.71240234 C-201.79121704 152.16008911 -201.79121704 152.16008911 -201.33935547 150.57641602 C-185.82907782 98.44937673 -148.3694443 57.42426488 -102.29663086 30.02490234 C-101.67143555 29.65026855 -101.04624023 29.27563477 -100.40209961 28.88964844 C-75.00127887 13.88711269 -45.33342957 5.25956045 -16.29663086 1.02490234 C-15.5926416 0.91887695 -14.88865234 0.81285156 -14.16333008 0.70361328 C-9.42818773 0.07778512 -4.77635807 -0.01774369 0 0 Z " fill="#3AAFC9" transform="translate(640.296630859375,-0.02490234375)"/>
<path d="M0 0 C0.66 0 1.32 0 2 0 C3.53710938 2.05688477 3.53710938 2.05688477 5.34375 4.94140625 C6.33918823 6.51680176 6.33918823 6.51680176 7.35473633 8.12402344 C7.70452545 8.68472534 8.05431458 9.24542725 8.41470337 9.82312012 C9.87288227 12.16010982 11.34646368 14.48722876 12.8195343 16.81484985 C13.55115951 17.97108741 14.28202668 19.12780498 15.01213074 20.28500366 C17.91554544 24.8837249 20.90409702 29.41322944 23.93969727 33.92553711 C28.32396054 40.45809825 32.62904582 47.04233307 36.9375 53.625 C37.34439056 54.2465799 37.75128113 54.86815979 38.17050171 55.50857544 C39.84637319 58.06879856 41.52208534 60.62912581 43.19749451 63.18965149 C46.08174688 67.59762723 48.96787287 72.00437012 51.85546875 76.41015625 C52.44813789 77.31444366 52.44813789 77.31444366 53.05278015 78.23699951 C53.84712584 79.4489959 54.64147296 80.66099134 55.43582153 81.87298584 C62.49312044 92.64140215 69.54237319 103.41505143 76.58642578 114.19213867 C81.88548011 122.29834948 87.19152274 130.39995891 92.5 138.5 C98.50525746 147.66323642 104.50595926 156.8294198 110.5 166 C116.34381325 174.94012584 122.1912035 183.8778971 128.04345703 192.8125 C128.87964168 194.08913744 129.71574396 195.36582883 130.55175781 196.64257812 C131.71784682 198.42334239 132.88426667 200.20388949 134.05078125 201.984375 C134.71762939 203.00241211 135.38447754 204.02044922 136.0715332 205.06933594 C137.41661784 207.11344228 138.83636958 209.10950053 140.30932617 211.06347656 C142 214 142 214 141.76327515 216.42614746 C140.9793206 219.06973335 140.03284645 220.85210662 138.47827148 223.11816406 C137.94874374 223.89899353 137.419216 224.679823 136.87364197 225.48431396 C136.29530106 226.31964661 135.71696014 227.15497925 135.12109375 228.015625 C134.22330956 229.33412445 134.22330956 229.33412445 133.30738831 230.67926025 C132.02451478 232.56203212 130.73809471 234.44239142 129.44848633 236.32055664 C126.07237308 241.23860724 122.72255525 246.17450677 119.37109375 251.109375 C118.3860939 252.55787842 118.3860939 252.55787842 117.38119507 254.03564453 C112.7996424 260.78506163 108.33666339 267.59016306 104 274.5 C95.45711903 288.0795986 86.39551969 301.31321341 77.375 314.578125 C72.1299304 322.3032705 66.91169668 330.02431348 62.015625 337.9765625 C55.28336743 348.91081681 47.96784872 359.45998416 40.74609375 370.07397461 C34.36057649 379.4664506 28.01833935 388.86689415 22 398.5 C15.39191511 409.07706743 8.38991339 419.3775097 1.375 429.6875 C-8.53611912 444.19762744 -8.53611912 444.19762744 -18 459 C-24.72636967 469.92681557 -32.03745591 480.46778052 -39.25390625 491.07397461 C-46.15906267 501.23078937 -52.95562053 511.42548973 -59.46359253 521.8417511 C-66.14808529 532.49414402 -73.28952499 542.84331823 -80.36376953 553.23876953 C-86.71016536 562.57248906 -93.01102478 571.91519855 -98.9921875 581.48828125 C-105.60306835 592.06914077 -112.60744359 602.37362518 -119.625 612.6875 C-130.52819901 628.69688374 -130.52819901 628.69688374 -140.91275024 645.04460144 C-142.81325023 648.1445238 -144.75213601 651.13960866 -147 654 C-150.72741435 652.75752855 -151.14856798 651.63144085 -153.1953125 648.34765625 C-153.82026611 647.35636719 -154.44521973 646.36507812 -155.08911133 645.34375 C-155.76095459 644.2609375 -156.43279785 643.178125 -157.125 642.0625 C-158.19812615 640.35830425 -159.27128592 638.65412869 -160.34632874 636.95114136 C-161.09327076 635.76772809 -161.83929861 634.58373737 -162.5844574 633.39920044 C-166.58372313 627.04896965 -170.69351068 620.7729817 -174.8125 614.5 C-176.23850361 612.32436448 -177.66429077 610.14858707 -179.08984375 607.97265625 C-179.75870605 606.95187988 -180.42756836 605.93110352 -181.11669922 604.87939453 C-185.00899272 598.928434 -188.86597338 592.95468261 -192.72167969 586.97998047 C-194.97824946 583.48479695 -197.23944609 579.99260747 -199.5 576.5 C-200.41668689 575.08334642 -201.3333536 573.66667978 -202.25 572.25 C-202.70375 571.54875 -203.1575 570.8475 -203.625 570.125 C-262.75 478.75 -262.75 478.75 -264.12670898 476.62231445 C-265.03762498 475.21456463 -265.94859448 473.80684943 -266.85961914 472.39916992 C-269.23972517 468.72136682 -271.61872476 465.0428543 -273.99609375 461.36328125 C-274.48851562 460.60144531 -274.9809375 459.83960938 -275.48828125 459.0546875 C-276.4248264 457.60569312 -277.36104704 456.15648893 -278.296875 454.70703125 C-278.72355469 454.04703125 -279.15023437 453.38703125 -279.58984375 452.70703125 C-279.99315918 452.07619629 -280.39647461 451.44536133 -280.81201172 450.79541016 C-281.93743647 449.09455244 -283.15617937 447.45652902 -284.37890625 445.82421875 C-286 443 -286 443 -286.046875 440.59765625 C-284.55400054 436.89332223 -282.4764477 433.74178226 -280.25 430.4375 C-279.23942051 428.90765963 -278.22901067 427.37770718 -277.21875 425.84765625 C-276.68894531 425.05117676 -276.15914062 424.25469727 -275.61328125 423.43408203 C-272.96204719 419.43396042 -270.35943756 415.4024535 -267.75 411.375 C-261.14795498 401.21649034 -254.52747351 391.06999194 -247.90722656 380.92333984 C-244.77083992 376.11598019 -241.63545352 371.30796828 -238.5 366.5 C-234.72707009 360.71451244 -230.95391359 354.92917333 -227.1796875 349.14453125 C-221.27952888 340.1008455 -215.38264751 331.05508817 -209.5 322 C-201.71100744 310.01049794 -193.89675877 298.0374891 -186.08398438 286.06347656 C-179.54875068 276.04701266 -173.01553857 266.02928973 -166.5 256 C-159.98158397 245.96628103 -153.44539629 235.94419467 -146.90722656 225.92333984 C-143.77083992 221.11598019 -140.63545352 216.30796828 -137.5 211.5 C-133.72707009 205.71451244 -129.95391359 199.92917333 -126.1796875 194.14453125 C-120.27952888 185.1008455 -114.38264751 176.05508817 -108.5 167 C-101.98158397 156.96628103 -95.44539629 146.94419467 -88.90722656 136.92333984 C-85.77083992 132.11598019 -82.63545352 127.30796828 -79.5 122.5 C-75.72707009 116.71451244 -71.95391359 110.92917333 -68.1796875 105.14453125 C-62.27952888 96.1008455 -56.38264751 87.05508817 -50.5 78 C-42.71100744 66.01049794 -34.89675877 54.0374891 -27.08398438 42.06347656 C-23.33543889 36.31813182 -19.58783031 30.5721783 -15.84179688 24.82519531 C-14.59342237 22.9102709 -13.34471396 20.99556412 -12.09570312 19.08105469 C-10.27109157 16.28388187 -8.44787319 13.48580589 -6.625 10.6875 C-6.07118652 9.83905518 -5.51737305 8.99061035 -4.94677734 8.11645508 C-4.44098145 7.33939209 -3.93518555 6.5623291 -3.4140625 5.76171875 C-2.74818115 4.740177 -2.74818115 4.740177 -2.06884766 3.69799805 C-0.95101517 1.98370183 -0.95101517 1.98370183 0 0 Z " fill="#21819E" transform="translate(905,370)"/>
<path d="M0 0 C3.3043743 1.37773819 4.77738627 2.70837142 6.62890625 5.75390625 C7.10038086 6.51654785 7.57185547 7.27918945 8.05761719 8.06494141 C8.80253418 9.30123291 8.80253418 9.30123291 9.5625 10.5625 C10.64103377 12.31174902 11.72047783 14.06043708 12.80078125 15.80859375 C13.34041504 16.68757324 13.88004883 17.56655273 14.43603516 18.47216797 C16.65456779 22.0579761 18.94655665 25.59337212 21.25 29.125 C27.85831506 39.29880471 34.38492863 49.52479398 40.91943359 59.74609375 C44.27786542 64.99852034 47.63900229 70.24921508 51 75.5 C55.06001674 81.84284118 59.11932804 88.18612907 63.17578125 94.53125 C69.39920759 104.26403385 75.63009586 113.99114516 81.91918945 123.68164062 C86.25927502 130.37939358 90.53430066 137.11821647 94.81347656 143.85498047 C98.31043062 149.35633283 101.82624449 154.84443076 105.375 160.3125 C111.93791559 170.42620576 118.42538967 180.5880833 124.91943359 190.74609375 C128.27786542 195.99852034 131.63900229 201.24921508 135 206.5 C139.06001674 212.84284118 143.11932804 219.18612907 147.17578125 225.53125 C155.80882386 239.0343244 155.80882386 239.0343244 164.5 252.5 C171.01962533 262.5522205 177.46586364 272.65139287 183.91943359 282.74609375 C187.27786542 287.99852034 190.63900229 293.24921508 194 298.5 C198.06001674 304.84284118 202.11932804 311.18612907 206.17578125 317.53125 C214.80882386 331.0343244 214.80882386 331.0343244 223.5 344.5 C230.01962533 354.5522205 236.46586364 364.65139287 242.91943359 374.74609375 C246.27786542 379.99852034 249.63900229 385.24921508 253 390.5 C257.06001674 396.84284118 261.11932804 403.18612907 265.17578125 409.53125 C273.80882386 423.0343244 273.80882386 423.0343244 282.5 436.5 C289.00348845 446.52734 295.43363842 456.60158218 301.87109375 466.67138672 C304.04790633 470.07490308 306.22673477 473.47712041 308.40625 476.87890625 C309.13062569 478.00975893 309.85499104 479.14061823 310.5793457 480.27148438 C311.94737153 482.40709388 313.31568146 484.54252144 314.68432617 486.67773438 C315.90750964 488.58780307 317.12555279 490.50117747 318.33740234 492.41845703 C319.40246131 494.07219176 320.49939918 495.70607797 321.63525391 497.31201172 C325.1119534 502.33521474 325.1119534 502.33521474 324.55859375 505.62109375 C324.04425781 506.40613281 323.52992188 507.19117188 323 508 C322.43410156 508.91910156 321.86820313 509.83820313 321.28515625 510.78515625 C320.55167969 511.86667969 319.81820313 512.94820312 319.0625 514.0625 C318.63557861 514.69478516 318.20865723 515.32707031 317.76879883 515.97851562 C316.18403224 518.32231764 314.59179819 520.66096803 313 523 C311.61684697 525.04013376 310.23406079 527.08051626 308.8515625 529.12109375 C305.63712588 533.86402734 302.41904959 538.60447708 299.19921875 543.34375 C294.39942224 550.40903726 289.60810066 557.48004232 284.81890869 564.55252075 C283.50047006 566.49930592 282.18169182 568.44586057 280.86279297 570.39233398 C276.93543794 576.18860376 273.00895341 581.98544522 269.08853149 587.78640747 C267.3989263 590.28587959 265.70788549 592.78437843 264.01660156 595.28271484 C263.23453667 596.43868668 262.45308823 597.5950759 261.67236328 598.75195312 C259.90834713 601.36565653 258.13390916 603.96768626 256.31806946 606.54580688 C254.73385069 608.83569651 253.35168566 611.15049198 252.04142761 613.60629272 C246.89234547 622.7099343 246.89234547 622.7099343 242.07561684 624.85832787 C236.57355016 626.31573062 230.93835078 626.29313287 225.28125 626.31640625 C223.45531238 626.35896132 221.62942391 626.40367459 219.80358887 626.45042419 C215.98306473 626.52947094 212.16697036 626.55173566 208.34570312 626.53930664 C204.45415744 626.53369852 200.58449605 626.62339719 196.69726562 626.8059082 C164.63554754 628.29178273 164.63554754 628.29178273 156.53878784 621.4178772 C150.64757675 615.45581235 147.0739576 608.06451721 143.68244934 600.49209595 C140.92034371 594.75906277 137.25139271 589.73846135 133.5625 584.5625 C132.15087314 582.50017905 130.74285455 580.43537965 129.33984375 578.3671875 C128.6319873 577.32916992 127.92413086 576.29115234 127.19482422 575.22167969 C123.33023842 569.54903518 119.47802218 563.86800217 115.625 558.1875 C114.82561676 557.00918609 114.02621895 555.83088208 113.22680664 554.65258789 C111.62022418 552.28454304 110.01370246 549.91645699 108.40722656 547.54833984 C106.01915168 544.02813609 103.63072712 540.50816969 101.2421875 536.98828125 C100.85071533 536.4113855 100.45924316 535.83448975 100.0559082 535.2401123 C98.87061145 533.49340415 97.68530722 531.74670106 96.5 530 C92.12839826 523.55788843 87.75680939 517.1157683 83.38616943 510.67300415 C75.4299212 498.9447126 67.47102213 487.21825884 59.5 475.5 C53.53633788 466.73277602 47.57819359 457.9618339 41.625 449.1875 C41.03286713 448.31476944 41.03286713 448.31476944 40.42877197 447.42440796 C37.21621044 442.68937872 34.00397324 437.95412948 30.79174805 433.21887207 C27.986316 429.0833125 25.18075728 424.94783892 22.375 420.8125 C21.98008362 420.23043793 21.58516724 419.64837585 21.17828369 419.04867554 C15.62381011 410.86241039 10.06405437 402.67975765 4.5 394.5 C-1.46366212 385.73277602 -7.42180641 376.9618339 -13.375 368.1875 C-13.76975525 367.60567963 -14.1645105 367.02385925 -14.57122803 366.42440796 C-17.78378956 361.68937872 -20.99602676 356.95412948 -24.20825195 352.21887207 C-27.013684 348.0833125 -29.81924272 343.94783892 -32.625 339.8125 C-33.01991638 339.23043793 -33.41483276 338.64837585 -33.82171631 338.04867554 C-39.37618989 329.86241039 -44.93594563 321.67975765 -50.5 313.5 C-56.46366212 304.73277602 -62.42180641 295.9618339 -68.375 287.1875 C-68.76975525 286.60567963 -69.1645105 286.02385925 -69.57122803 285.42440796 C-72.78378956 280.68937872 -75.99602676 275.95412948 -79.20825195 271.21887207 C-81.61524424 267.67066281 -84.02235132 264.12253147 -86.42959595 260.57449341 C-87.22601215 259.40059736 -88.02237859 258.22666755 -88.81869507 257.05270386 C-93.72630205 249.81773139 -98.64119829 242.58783423 -103.56665039 235.36499023 C-105.65407805 232.29908837 -107.73366892 229.22798508 -109.8125 226.15625 C-112.35102636 222.40867219 -114.91374071 218.68037625 -117.50822449 214.97149658 C-118.66981714 213.30659471 -119.82327153 211.63637709 -120.97387695 209.96386719 C-122.41887583 207.86593345 -123.87779426 205.77750018 -125.35229492 203.70019531 C-125.99271729 202.76272461 -126.63313965 201.82525391 -127.29296875 200.859375 C-128.15184692 199.62912598 -128.15184692 199.62912598 -129.02807617 198.37402344 C-130 196 -130 196 -129.23338318 193.62190247 C-128.06067849 191.12898917 -126.78378106 188.95218927 -125.23779297 186.67553711 C-124.68316376 185.85375473 -124.12853455 185.03197235 -123.55709839 184.18528748 C-122.9581778 183.30816605 -122.3592572 182.43104462 -121.7421875 181.52734375 C-121.12030548 180.60844864 -120.49842346 179.68955353 -119.85769653 178.74281311 C-117.86788698 175.8046817 -115.87162337 172.8710042 -113.875 169.9375 C-112.55424424 167.990535 -111.23392713 166.04327234 -109.9140625 164.09570312 C-107.99015532 161.25711289 -106.06585752 158.41879577 -104.1396637 155.58175659 C-100.42293122 150.10687784 -96.73312546 144.61613968 -93.07226562 139.10375977 C-90.36369675 135.04696946 -87.62919831 131.00797729 -84.89453125 126.96875 C-70.72350837 106.02830414 -56.66846853 85.01855329 -42.80786133 63.87109375 C-37.30585795 55.48316588 -31.76136021 47.13486305 -26.05311584 38.88569641 C-20.70891458 31.15557023 -15.51455195 23.32615752 -10.3125 15.5 C-9.30284492 13.98299934 -8.29307971 12.46607197 -7.28320312 10.94921875 C-4.85420658 7.30031734 -2.42667358 3.65044664 0 0 Z " fill="#21819E" transform="translate(412,554)"/>
<path d="M0 0 C9.54085305 0 18.05147121 0.06254159 27.3125 1.5625 C28.417146 1.73958496 29.52179199 1.91666992 30.65991211 2.09912109 C78.15120391 10.14598588 121.25458815 31.81671157 156 65 C156.92554688 65.87269531 157.85109375 66.74539062 158.8046875 67.64453125 C165.95499956 74.56190114 172.06818273 82.03109094 178 90 C178.63679687 90.85335937 179.27359375 91.70671875 179.9296875 92.5859375 C203.39919163 125.14041097 215.81425848 163.19727438 216.31982422 203.2902832 C216.34086301 204.71727288 216.36210904 206.14425952 216.38354492 207.57124329 C216.5709406 220.57786901 216.67413656 233.58567716 216.75568962 246.59335041 C216.81156948 255.31418 216.89198912 264.03330789 217.03564453 272.75317383 C217.16147248 280.39129431 217.24017438 288.02824044 217.26382077 295.66738576 C217.27776474 299.69677686 217.31320494 303.72305863 217.405056 307.75148964 C217.80876831 326.22693395 217.09981207 340.38457284 204.54065704 355.13850021 C202.32832346 357.81155358 200.56901091 360.6559576 198.7578125 363.61328125 C197.85385742 365.03060547 197.85385742 365.03060547 196.93164062 366.4765625 C196.33544922 367.41242188 195.73925781 368.34828125 195.125 369.3125 C189.35158486 378.35546777 183.51896914 387.35729289 177.64501953 396.33520508 C173.0531167 403.3626089 168.51646446 410.42391448 164 417.5 C158.26790097 426.48065806 152.47758048 435.42058225 146.64453125 444.3359375 C142.0528054 451.36310705 137.51634799 458.42418783 133 465.5 C125.95900022 476.53007234 118.8245862 487.49683439 111.66503906 498.45019531 C104.79679064 508.9680819 98.01300459 519.53921734 91.25 530.125 C85.43333127 539.22905223 79.56037258 548.2939803 73.64550781 557.33447266 C69.05342769 564.36211126 64.51662235 571.42366711 60 578.5 C54.26790097 587.48065806 48.47758048 596.42058225 42.64453125 605.3359375 C38.05280531 612.36310718 33.51635626 619.42419293 29 626.5 C21.89490699 637.63021002 14.73038984 648.72132701 7.47070312 659.75146484 C6.55595681 661.15000627 5.65160653 662.55547569 4.76367188 663.97119141 C3.89187126 665.34672581 2.95421177 666.68029886 2 668 C1.34 668 0.68 668 0 668 C0 447.56 0 227.12 0 0 Z " fill="#3AAFC9" transform="translate(678,0)"/>
<path d="M0 0 C0 219.78 0 439.56 0 666 C-2.80907022 662.48866222 -5.35274887 659.09934035 -7.8359375 655.37890625 C-8.56345215 654.28956787 -9.2909668 653.20022949 -10.04052734 652.07788086 C-10.81888763 650.9062219 -11.59704039 649.73442504 -12.375 648.5625 C-12.77261536 647.96519073 -13.17023071 647.36788147 -13.57989502 646.75247192 C-19.53356409 637.80647251 -25.36235854 628.78853309 -31.10229492 619.70361328 C-35.02315507 613.50610639 -39.03938484 607.38293545 -43.1262207 601.29394531 C-47.82148441 594.29099487 -52.44575635 587.2423149 -57.0625 580.1875 C-57.46699371 579.56951538 -57.87148743 578.95153076 -58.28823853 578.31481934 C-60.36626643 575.13985614 -62.44378818 571.96456222 -64.52099609 568.7890625 C-68.079965 563.34869804 -71.64247997 557.91065715 -75.20529175 552.47280884 C-75.9871632 551.27944972 -76.76900304 550.08606989 -77.55081177 548.89266968 C-83.86226055 539.25853084 -90.17996134 529.62850555 -96.5 520 C-105.56000348 506.19718985 -114.6107472 492.38833697 -123.65722656 478.57666016 C-127.20779351 473.15594019 -130.75917602 467.73575454 -134.31048584 462.31552124 C-136.29035624 459.29370202 -138.27017557 456.27184934 -140.25 453.25 C-141.04166642 452.04166651 -141.83333309 450.83333317 -142.625 449.625 C-166.375 413.37499999 -166.375 413.37499999 -167.56240845 411.56263733 C-168.35437734 410.3538443 -169.14634919 409.14505321 -169.93832397 407.93626404 C-171.91289063 404.9224798 -173.8874067 401.90866245 -175.86181641 398.89477539 C-179.47862476 393.37391914 -183.09584537 387.85333484 -186.71490479 382.33395386 C-188.37141415 379.80756408 -190.02763453 377.28098492 -191.68383789 374.75439453 C-192.8117353 373.03399844 -193.94003539 371.31386635 -195.06835938 369.59375 C-196.51128174 367.39241831 -197.93461603 365.1781151 -199.3374939 362.9510498 C-201.1452267 360.16313772 -203.1060902 357.64629865 -205.26004028 355.11828613 C-217.20292622 340.31372577 -216.789036 325.22526342 -216.41691589 307.17239118 C-216.34563966 303.05985814 -216.34792232 298.94726637 -216.34082031 294.83421326 C-216.31885835 287.93212517 -216.24936437 281.03193715 -216.14550781 274.13061523 C-216.00024275 264.46799294 -215.9471656 254.80642723 -215.90988541 245.14287674 C-215.88003885 238.36958473 -215.82687039 231.59644192 -215.77014923 224.82332873 C-215.75679188 223.20286985 -215.74416447 221.58240477 -215.73229218 219.96193433 C-215.57187302 198.38135976 -215.36636332 176.84449581 -209.3125 155.9375 C-208.93013184 154.58628052 -208.93013184 154.58628052 -208.54003906 153.20776367 C-199.16535852 121.16640481 -182.01182766 93.02879435 -159 69 C-158.29254639 68.25169922 -158.29254639 68.25169922 -157.57080078 67.48828125 C-149.97520919 59.48371605 -141.83882467 52.59120987 -133 46 C-132.44086914 45.57477051 -131.88173828 45.14954102 -131.30566406 44.71142578 C-121.74710547 37.45462167 -111.64867429 31.51582928 -101 26 C-100.18644043 25.57686523 -99.37288086 25.15373047 -98.53466797 24.71777344 C-75.13096498 12.69460528 -50.05174552 5.11080608 -24.0625 1.1875 C-23.25917236 1.06334717 -22.45584473 0.93919434 -21.62817383 0.8112793 C-14.26237309 -0.20167716 -7.6389871 0 0 0 Z " fill="#3AAFC9" transform="translate(1140,0)"/>
<path d="M0 0 C0.66 0 1.32 0 2 0 C3.73629751 2.44674023 5.350109 4.89591552 6.9375 7.4375 C7.93601239 9.00923246 8.9347155 10.58084378 9.93359375 12.15234375 C10.69905518 13.36446533 10.69905518 13.36446533 11.47998047 14.60107422 C13.79302928 18.25157495 16.14692734 21.87522531 18.5 25.5 C19.41689653 26.9165179 20.33356237 28.33318516 21.25 29.75 C21.930625 30.801875 21.930625 30.801875 22.625 31.875 C37.75 55.25 37.75 55.25 39.12451172 57.37426758 C40.042779 58.79339311 40.96107335 60.21250114 41.87939453 61.6315918 C44.14679201 65.13549597 46.41374501 68.63968595 48.6796875 72.14453125 C53.61004244 79.7693825 58.54970195 87.38807908 63.5 95 C68.89778982 103.30001525 74.28176625 111.60884956 79.65722656 119.92333984 C81.93723929 123.44948316 84.21870206 126.97468809 86.5 130.5 C87.41667341 131.9166623 88.33334008 133.33332897 89.25 134.75 C89.70375 135.45125 90.1575 136.1525 90.625 136.875 C95.66666667 144.66666667 100.70833333 152.45833333 105.75 160.25 C106.20407227 160.9517334 106.65814453 161.6534668 107.12597656 162.37646484 C108.03944205 163.78821374 108.95285381 165.1999974 109.86621094 166.61181641 C112.68585191 170.97008373 115.50706072 175.32732711 118.33129883 179.68261719 C119.26593902 181.12695876 120.19813153 182.57288763 121.12768555 184.02050781 C123.14502343 187.16014414 125.17616622 190.27845175 127.31640625 193.3359375 C127.97511719 194.29757812 128.63382812 195.25921875 129.3125 196.25 C129.88613281 197.05953125 130.45976562 197.8690625 131.05078125 198.703125 C132 201 132 201 131.22338867 203.37158203 C130.07675803 205.83508742 128.83485982 208.06237588 127.375 210.3515625 C126.57594238 211.60815674 126.57594238 211.60815674 125.76074219 212.89013672 C125.17969727 213.7926416 124.59865234 214.69514648 124 215.625 C123.3905957 216.57777832 122.78119141 217.53055664 122.15332031 218.51220703 C116.72726637 226.95560344 111.15706396 235.30061341 105.56884766 243.63702393 C100.89188176 250.61528069 96.29439983 257.6234572 91.90527344 264.78662109 C87.39570515 272.08465024 82.56963214 279.17587634 77.79296875 286.30029297 C73.43187248 292.80819924 69.09346073 299.31888731 65 306 C60.15182817 313.91290902 54.95978686 321.59395867 49.79296875 329.30029297 C45.43187248 335.80819924 41.09346073 342.31888731 37 349 C32.15667336 356.90500098 26.97100904 364.57932587 21.80807495 372.27713013 C16.70941731 379.88250814 11.68097053 387.51858531 6.90429688 395.33203125 C5.9477012 396.89511919 4.97477823 398.44818603 4 400 C3.55889804 400.71051506 3.11779608 401.42103012 2.6633274 402.15307593 C1 404 1 404 -1.05254716 404.49679399 C-1.84730181 404.4952751 -2.64205646 404.49375622 -3.46089458 404.49219131 C-4.37951737 404.50015551 -5.29814016 404.5081197 -6.2446 404.51632524 C-7.25528993 404.50467387 -8.26597986 404.4930225 -9.30729675 404.48101807 C-10.37975075 404.48443577 -11.45220474 404.48785347 -12.55715734 404.49137473 C-16.16882499 404.49798965 -19.77975767 404.47591715 -23.39135742 404.45410156 C-25.97304771 404.45297387 -28.55473929 404.45360541 -31.13642883 404.45587158 C-36.70387133 404.45797081 -42.27112657 404.44540196 -47.83852196 404.42292023 C-55.88804626 404.39043652 -63.93747986 404.37999695 -71.98706261 404.37496826 C-85.04635807 404.36620989 -98.10555369 404.33957965 -111.16479492 404.30175781 C-123.85196431 404.26505173 -136.5391066 404.23673312 -149.22631836 404.21972656 C-150.00812303 404.21867567 -150.7899277 404.21762477 -151.59542342 404.21654204 C-155.51743802 404.21132195 -159.4394528 404.2062671 -163.36146772 404.20129442 C-195.90771783 404.1598155 -228.45384557 404.08935238 -261 404 C-259.38282272 399.79907204 -257.34647267 396.10266287 -254.9375 392.3125 C-254.50977295 391.63388916 -254.0820459 390.95527832 -253.64135742 390.25610352 C-247.62452162 380.76102787 -241.43316081 371.3774134 -235.26585388 361.97972107 C-231.58366033 356.36815183 -227.91534362 350.74758451 -224.25 345.125 C-223.63568115 344.18285645 -223.0213623 343.24071289 -222.38842773 342.27001953 C-216.781703 333.66920973 -211.18575556 325.06141079 -205.59277344 316.45166016 C-202.89595246 312.30060617 -200.19790786 308.15034762 -197.5 304 C-196.41666095 302.33333705 -195.33332761 300.66667039 -194.25 299 C-145.5 224 -145.5 224 -96.75 149 C-96.21391113 148.1752417 -95.67782227 147.3504834 -95.12548828 146.50073242 C-94.04055022 144.83160948 -92.95558923 143.16250144 -91.87060547 141.4934082 C-89.18663762 137.36444358 -86.50304969 133.2352331 -83.8203125 129.10546875 C-77.4191643 119.25272103 -71.00678657 109.40737779 -64.58642578 99.56713867 C-60.55154953 93.38202302 -56.52293283 87.19288968 -52.5 81 C-45.98161992 70.96625775 -39.44539623 60.94419458 -32.90722656 50.92333984 C-31.018597 48.02850492 -29.13031536 45.13344343 -27.2421875 42.23828125 C-26.6234375 41.28953125 -26.0046875 40.34078125 -25.3671875 39.36328125 C-24.13008868 37.46622386 -22.89310801 35.56908941 -21.65625 33.671875 C-18.36006289 28.61633064 -15.0609052 23.56275448 -11.7578125 18.51171875 C-11.06623047 17.45339844 -10.37464844 16.39507813 -9.66210938 15.3046875 C-8.32834223 13.26375523 -6.99373879 11.22336918 -5.65820312 9.18359375 C-5.06201172 8.2709375 -4.46582031 7.35828125 -3.8515625 6.41796875 C-3.32385254 5.61125732 -2.79614258 4.8045459 -2.25244141 3.97338867 C-0.97450929 2.03376507 -0.97450929 2.03376507 0 0 Z " fill="#21819E" transform="translate(261,774)"/>
<path d="M0 0 C1.26819077 -0.00945648 2.53638153 -0.01891296 3.84300232 -0.02865601 C5.22875276 -0.02328573 6.61450036 -0.01713264 8.00024414 -0.01025391 C9.42127125 -0.012275 10.84229736 -0.01518673 12.26332092 -0.01895142 C15.24172845 -0.02337459 18.21986604 -0.01694521 21.19824219 -0.00292969 C25.01275388 0.01414703 28.82663162 0.00433119 32.64111996 -0.01364708 C35.57598121 -0.02449861 38.51069273 -0.02103211 41.44555855 -0.0132637 C42.85175209 -0.01126465 44.2579593 -0.01371063 45.66413689 -0.02070236 C47.6315573 -0.02833667 49.59902545 -0.01463374 51.56640625 0 C53.24493935 0.00358017 53.24493935 0.00358017 54.9573822 0.00723267 C58.21361089 0.43638179 59.52954232 1.09856167 61.84790039 3.38818359 C62.88873291 5.08049011 62.88873291 5.08049011 63.6652832 6.97094727 C63.96881714 7.69301361 64.27235107 8.41507996 64.58508301 9.1590271 C64.90384399 9.95007843 65.22260498 10.74112976 65.55102539 11.55615234 C65.90201294 12.39892731 66.25300049 13.24170227 66.61462402 14.11001587 C67.3813226 15.95435559 68.14273204 17.80090067 68.89953613 19.64932251 C70.53864151 23.65195706 72.20320345 27.64383665 73.86651611 31.63645935 C74.76177197 33.78580946 75.65574184 35.9356956 76.54852295 38.08607483 C81.86980898 50.88927553 87.33959852 63.62843009 92.81108093 76.36792374 C94.09588808 79.36065979 95.37846757 82.35435043 96.66137695 85.34790039 C97.63489709 87.61788687 98.60852501 89.88782712 99.58227539 92.15771484 C100.01084839 93.1573526 100.43942139 94.15699036 100.88098145 95.18692017 C104.49657416 103.60492244 108.1689014 111.99775558 111.84790039 120.38818359 C111.85028874 119.78188677 111.8526771 119.17558994 111.85513783 118.55092049 C111.91422049 103.81248327 111.98972704 89.07419391 112.0836153 74.33593941 C112.12862073 67.20867514 112.16802425 60.08146137 112.19433594 52.95410156 C112.2197243 46.08108186 112.26059663 39.20829543 112.31108665 32.33541489 C112.32782457 29.70789238 112.33929549 27.08033107 112.3455143 24.4527626 C112.3550802 20.78402237 112.38304937 17.11586425 112.41552734 13.44726562 C112.41337471 11.80297073 112.41337471 11.80297073 112.41117859 10.12545776 C112.42998581 8.6320285 112.42998581 8.6320285 112.44917297 7.10842896 C112.45378194 6.24009996 112.4583909 5.37177097 112.46313953 4.47712898 C112.59011062 3.787777 112.7170817 3.09842503 112.84790039 2.38818359 C116.31622673 0.07596603 117.6496079 0.13548971 121.74047852 0.12939453 C122.95183472 0.12309021 124.16319092 0.11678589 125.41125488 0.11029053 C127.37536316 0.11636322 127.37536316 0.11636322 129.37915039 0.12255859 C130.73531158 0.12121125 132.0914723 0.11927015 133.44763184 0.11676025 C136.28894655 0.11381222 139.13013546 0.11809624 141.97143555 0.12744141 C145.61329411 0.13883589 149.25485788 0.13227468 152.89670563 0.12029648 C155.69682028 0.11306916 158.49686505 0.11536979 161.29698181 0.12055206 C163.29283845 0.12253494 165.28869781 0.11646135 167.2845459 0.11029053 C168.4959021 0.11659485 169.7072583 0.12289917 170.95532227 0.12939453 C172.02327026 0.13098572 173.09121826 0.1325769 174.19152832 0.13421631 C176.84790039 0.38818359 176.84790039 0.38818359 179.84790039 2.38818359 C180.22279721 4.21805048 180.22279721 4.21805048 180.2226305 6.48618317 C180.22983704 7.34933057 180.23704359 8.21247798 180.24446851 9.10178137 C180.23709423 10.05565567 180.22971994 11.00952998 180.22212219 11.99230957 C180.2260966 13.00124472 180.230071 14.01017987 180.23416585 15.04968882 C180.24384005 18.45237452 180.23193973 21.85464975 180.22021484 25.25732422 C180.22264112 27.68784237 180.22635883 30.11835952 180.23127747 32.5488739 C180.23973137 38.47828408 180.2341515 44.40758365 180.22201452 50.33697832 C180.20841587 57.23663693 180.21003049 64.13626638 180.21214785 71.03593498 C180.21534011 83.3436431 180.2036565 95.6512934 180.18408203 107.95898438 C180.16507686 119.91180177 180.15799418 131.86455139 180.16357422 143.81738281 C180.16962712 156.82166843 180.16946392 169.82592421 180.15808839 182.83020735 C180.15688105 184.21592172 180.15567506 185.60163609 180.15447044 186.98735046 C180.15386691 187.6692143 180.15326337 188.35107814 180.15264154 189.05360451 C180.14875633 193.86722678 180.14915834 198.68083798 180.15105629 203.49446106 C180.15339558 209.9688026 180.14487571 216.44307559 180.1289959 222.91739845 C180.12473757 225.29991608 180.12391281 227.68244257 180.1266861 230.06496239 C180.12988628 233.30475822 180.12088093 236.54428905 180.1085968 239.78405762 C180.11237613 240.73793192 180.11615545 241.69180623 180.1200493 242.67458582 C180.1142171 243.53773323 180.10838491 244.40088063 180.10237598 245.29018402 C180.10150921 246.03866781 180.10064243 246.78715159 180.09974939 247.55831671 C179.84790039 249.38818359 179.84790039 249.38818359 177.84790039 251.38818359 C175.12869263 251.66233826 175.12869263 251.66233826 171.62573242 251.69458008 C169.66327072 251.71856117 169.66327072 251.71856117 167.66116333 251.74302673 C166.22601713 251.7494032 164.79086626 251.75479601 163.35571289 251.75927734 C161.8884166 251.76824115 160.42112127 251.77736295 158.9538269 251.78663635 C155.87536394 251.80314038 152.79700991 251.8108289 149.71850586 251.8137207 C145.77483116 251.8191038 141.83218119 251.85677275 137.88879585 251.90246487 C134.85700756 251.93221914 131.82546639 251.93944389 128.79354477 251.94044685 C127.33985581 251.9446531 125.88616637 251.95710389 124.432621 251.9779644 C122.39820807 252.00483457 120.36342605 251.99695507 118.32885742 251.98754883 C117.17128937 251.99261948 116.01372131 251.99769012 114.82107544 252.00291443 C111.84790039 251.38818359 111.84790039 251.38818359 109.58036804 249.14245605 C108.03864808 246.69143377 106.76814205 244.38470525 105.64746094 241.72045898 C105.26069687 240.81207275 104.8739328 239.90368652 104.47544861 238.96777344 C104.06597488 237.98373535 103.65650116 236.99969727 103.23461914 235.98583984 C102.57031639 234.41684937 102.57031639 234.41684937 101.89259338 232.81616211 C100.43286472 229.36404617 98.98421493 225.90739251 97.53540039 222.45068359 C96.52093453 220.04660444 95.50562288 217.64288203 94.48950195 215.23950195 C92.63334367 210.84825204 90.7797075 206.45595452 88.92915154 202.06234074 C85.41262892 193.71463047 81.87235915 185.37718813 78.32055664 177.04443359 C78.05691 176.42589445 77.79326336 175.80735531 77.52162743 175.17007256 C76.22043898 172.11771 74.91885573 169.06551617 73.61709595 166.01339722 C70.7778815 159.35506549 67.94291968 152.69492197 65.10707092 146.03515625 C64.72022629 145.12693115 64.33338165 144.21870605 63.93481445 143.28295898 C63.60225647 142.50207413 63.26969849 141.72118927 62.92706299 140.91664124 C61.57082122 137.73899231 60.20945063 134.56356158 58.84790039 131.38818359 C58.85066577 131.98232937 58.85343115 132.57647514 58.85628033 133.18862534 C58.92252636 147.64388229 58.97217422 162.0991257 59.00333691 176.55450058 C59.01880743 183.54501547 59.03990036 190.53542904 59.07421875 197.52587891 C59.10730774 204.26912076 59.12474231 211.01223549 59.13253212 217.75556183 C59.13808513 220.33123687 59.14892844 222.906906 59.16509056 225.48253632 C59.18679392 229.08370023 59.18987022 232.68442599 59.18847656 236.28564453 C59.19926239 237.3559491 59.21004822 238.42625366 59.22116089 239.5289917 C59.2170369 240.51053223 59.2129129 241.49207275 59.20866394 242.50335693 C59.21142932 243.35509365 59.2141947 244.20683037 59.21704388 245.08437729 C58.76025988 247.93514368 57.82845656 249.31165326 55.84790039 251.38818359 C53.15356445 251.88265991 53.15356445 251.88265991 49.86352539 251.87402344 C48.01645996 251.88325333 48.01645996 251.88325333 46.13208008 251.89266968 C44.78734594 251.87887321 43.44261919 251.8643392 42.09790039 251.84912109 C40.71932141 251.84673641 39.34073915 251.8458314 37.9621582 251.84634399 C35.07360473 251.84321627 32.18554772 251.82665445 29.29711914 251.79980469 C25.59469234 251.7658244 21.89281105 251.75817611 18.19024658 251.75969505 C15.34377841 251.75915116 12.49742948 251.74818103 9.65100098 251.73369217 C8.28585716 251.72732819 6.92069984 251.72338621 5.55554199 251.72190475 C3.64773706 251.7175677 1.73998284 251.69847888 -0.16772461 251.67871094 C-1.2534375 251.67108734 -2.33915039 251.66346375 -3.45776367 251.65560913 C-6.15209961 251.38818359 -6.15209961 251.38818359 -9.15209961 249.38818359 C-9.5281471 247.5658794 -9.5281471 247.5658794 -9.52962303 245.3085947 C-9.53744627 244.44954739 -9.54526952 243.59050008 -9.55332983 242.70542103 C-9.54663766 241.75611979 -9.5399455 240.80681855 -9.53305054 239.82875061 C-9.53773051 238.82460458 -9.54241048 237.82045854 -9.54723227 236.78588384 C-9.55926006 233.39936042 -9.5496946 230.01323587 -9.5402832 226.62670898 C-9.54434547 224.20766462 -9.54968539 221.7886221 -9.55621338 219.36958313 C-9.56850749 213.46791761 -9.56666008 207.56635681 -9.55797546 201.66469414 C-9.55120995 196.86927686 -9.55027726 192.07389167 -9.55354691 187.27847099 C-9.5540066 186.59686928 -9.5544663 185.91526756 -9.55493993 185.21301125 C-9.55589908 183.8284895 -9.55687172 182.44396776 -9.55785771 181.05944603 C-9.5664202 168.06494112 -9.55656437 155.07049961 -9.54045661 142.07600509 C-9.52705564 130.91969753 -9.529378 119.76348361 -9.54321289 108.60717773 C-9.55925876 95.66184125 -9.56559297 82.71656042 -9.5563761 69.77121538 C-9.55542042 68.39138091 -9.55447731 67.01154644 -9.55354691 65.63171196 C-9.55285267 64.61327344 -9.55285267 64.61327344 -9.5521444 63.5742604 C-9.5495513 58.78364013 -9.55393245 53.99305508 -9.56098557 49.20244026 C-9.57026641 42.7568014 -9.56368123 36.31129805 -9.5463028 29.86567497 C-9.54232376 27.49486461 -9.54349604 25.1240394 -9.55009079 22.75323486 C-9.55824046 19.52681924 -9.54806423 16.3009788 -9.53305054 13.07460022 C-9.5397427 12.1275297 -9.54643487 11.18045919 -9.55332983 10.20468956 C-9.54550658 9.3430345 -9.53768334 8.48137944 -9.52962303 7.59361362 C-9.52889245 6.47601417 -9.52889245 6.47601417 -9.5281471 5.33583695 C-8.51041862 0.06474133 -4.65267754 0.00993083 0 0 Z " fill="#21819E" transform="translate(60.152099609375,1240.61181640625)"/>
<path d="M0 0 C1.30718491 -0.01475121 1.30718491 -0.01475121 2.64077759 -0.02980042 C4.07130463 -0.01529846 4.07130463 -0.01529846 5.5307312 -0.00050354 C7.04124557 -0.00860802 7.04124557 -0.00860802 8.58227539 -0.01687622 C11.92590387 -0.02942309 15.26868023 -0.0128161 18.61227417 0.00511169 C20.94380742 0.00495668 23.27534094 0.00346723 25.60687256 0.0007019 C30.50803952 -0.00068533 35.40891506 0.01191711 40.31002808 0.03465271 C46.54904222 0.06281822 52.78756395 0.06036436 59.02661324 0.0475626 C63.85180752 0.04055025 68.67689122 0.04846122 73.50207138 0.06081963 C75.79903614 0.06529602 78.09601295 0.06570478 80.39297867 0.06175423 C108.92285415 0.0356914 131.57881073 4.39417786 152.44430542 25.21214294 C168.49620792 42.66911914 171.67336971 66.16373294 170.88180542 88.87767029 C169.76145587 108.17138218 161.29051635 124.75579926 147.53024292 138.04026794 C143.82695051 141.29420688 139.94502037 143.9682265 135.72946167 146.50120544 C140.06554438 159.09042741 144.58318138 171.5912547 149.35491943 184.02183533 C150.38516783 186.70621227 151.41134904 189.39211688 152.43673706 192.07835388 C155.50197085 200.10326843 158.57954023 208.12329526 161.68081665 216.13435364 C162.89403856 219.26931497 164.10354905 222.4057025 165.31289673 225.54216003 C166.14804598 227.70227986 166.98962386 229.85981848 167.83151245 232.01731873 C168.33816868 233.32953687 168.84453365 234.64186751 169.35055542 235.95433044 C170.00688965 237.64284119 170.00688965 237.64284119 170.67648315 239.36546326 C171.71646886 242.46251319 172.46409298 245.24349703 172.72946167 248.50120544 C172.06946167 249.49120544 171.40946167 250.48120544 170.72946167 251.50120544 C168.01025391 251.89561462 168.01025391 251.89561462 164.5072937 251.92112732 C163.1989859 251.93703918 161.8906781 251.95295105 160.54272461 251.96934509 C159.10757501 251.9706124 157.67242409 251.97078918 156.23727417 251.96995544 C154.76997586 251.97705378 153.30268034 251.98475229 151.83538818 251.99302673 C148.75686942 252.00648945 145.67860714 252.00803296 142.60006714 252.00218201 C138.65633987 251.996291 134.7138459 252.02684198 130.77035713 252.06729889 C127.73853943 252.09316399 124.70701888 252.09605435 121.67510605 252.09240723 C120.22143332 252.09410035 118.76774714 252.1037616 117.31418228 252.12155151 C115.27971433 252.14370568 113.24495631 252.1308412 111.2104187 252.11643982 C110.05285065 252.11849426 108.89528259 252.12054871 107.70263672 252.12266541 C104.72946167 251.50120544 104.72946167 251.50120544 102.50471497 249.45303345 C100.42064622 245.9877181 99.07828821 242.48298127 97.8444519 238.65672302 C97.58534027 237.8820166 97.32622864 237.10731018 97.05926514 236.30912781 C96.20877809 233.75788754 95.3733283 231.20199435 94.53805542 228.64573669 C93.94648992 226.86050819 93.35403293 225.07557488 92.76072693 223.29092407 C91.20223742 218.59443383 89.65664882 213.89379307 88.11349487 209.19224548 C86.85830931 205.37505038 85.59428196 201.56081337 84.3296957 197.74672413 C73.71227303 165.72251351 73.71227303 165.72251351 70.72946167 155.50120544 C67.75946167 155.50120544 64.78946167 155.50120544 61.72946167 155.50120544 C61.72137482 156.67440338 61.71328796 157.84760132 61.70495605 159.05635071 C61.62759418 170.09293482 61.53988044 181.12939414 61.44193459 192.16581535 C61.39191055 197.84024977 61.3455812 203.514665 61.30758667 209.18919373 C61.27081085 214.66167417 61.22447223 220.13399651 61.17139816 225.60634232 C61.15281313 227.6979763 61.1377205 229.78964422 61.12611771 231.88132858 C61.10932535 234.80280121 61.0803078 237.72390845 61.04830933 240.64524841 C61.04614914 241.51702728 61.04398895 242.38880615 61.04176331 243.28700256 C60.95756599 249.27310112 60.95756599 249.27310112 58.72946167 251.50120544 C56.11741638 251.76863098 56.11741638 251.76863098 52.76681519 251.79173279 C51.51534195 251.80449249 50.26386871 251.8172522 48.97447205 251.83039856 C47.6024389 251.83345578 46.23040369 251.83568377 44.85836792 251.83714294 C43.4559363 251.84356744 42.05350604 251.85029554 40.65107727 251.85731506 C37.70964449 251.86929954 34.76832926 251.87299468 31.82687378 251.87181091 C28.0558626 251.87160761 24.28560415 251.89891462 20.51477146 251.93335533 C17.61770662 251.95558224 14.72082417 251.95964978 11.82368279 251.95859146 C10.4333836 251.9609536 9.04307986 251.96981167 7.65286446 251.9852562 C5.70917564 252.0048278 3.76526666 251.9965784 1.82150269 251.98704529 C0.7150087 251.98989532 -0.39148529 251.99274536 -1.5315094 251.99568176 C-4.27053833 251.50120544 -4.27053833 251.50120544 -5.91791821 250.07525826 C-8.01182941 246.09051935 -7.68337495 242.25832936 -7.65148926 237.82188416 C-7.65616923 236.8289855 -7.6608492 235.83608684 -7.66567099 234.81310034 C-7.67766422 231.47657877 -7.66814668 228.14046465 -7.65872192 224.80393982 C-7.66278569 222.41577921 -7.66812647 220.02762048 -7.6746521 217.63946533 C-7.68693062 211.82061749 -7.68510715 206.00189976 -7.67641418 200.18304789 C-7.66964208 195.45442987 -7.66871885 190.72584438 -7.67198563 185.9972229 C-7.67244533 185.32450697 -7.67290502 184.65179104 -7.67337865 183.95868978 C-7.67433782 182.59212783 -7.67531046 181.22556589 -7.67629643 179.85900396 C-7.68485334 167.04138685 -7.67501148 154.22383409 -7.65889533 141.40622753 C-7.64549186 130.40546528 -7.64781986 119.40479801 -7.66165161 108.40403748 C-7.67770212 95.6326378 -7.68402934 82.86129454 -7.67481482 70.08988619 C-7.67385916 68.72832013 -7.67291605 67.36675406 -7.67198563 66.00518799 C-7.6715228 65.33525199 -7.67105997 64.665316 -7.67058312 63.97507891 C-7.66799164 59.25153014 -7.67236763 54.52801711 -7.67942429 49.80447388 C-7.68807325 43.44825396 -7.68210982 37.09221385 -7.66474152 30.73601341 C-7.66076561 28.39948513 -7.66192948 26.06294179 -7.66852951 23.72641945 C-7.67669133 20.54424904 -7.66648806 17.36265982 -7.65148926 14.18052673 C-7.65818142 13.24940614 -7.66487359 12.31828555 -7.67176855 11.35894918 C-7.63873005 7.76100826 -7.60642863 5.18897501 -6.01363754 1.9275732 C-3.85060085 0.15757309 -2.77852465 0.00076833 0 0 Z M61.72946167 59.50120544 C60.04610228 62.86792423 60.58791878 66.67417145 60.59664917 70.37620544 C60.59569244 71.256474 60.59473572 72.13674255 60.59375 73.04368591 C60.59306891 74.90647961 60.59491824 76.76927567 60.59909058 78.63206482 C60.60443983 81.48954073 60.59914318 84.34685945 60.59274292 87.20433044 C60.59340371 89.01162246 60.5946849 90.81891438 60.59664917 92.62620544 C60.59462494 93.48455994 60.59260071 94.34291443 60.59051514 95.22727966 C60.48303489 99.49921346 60.48303489 99.49921346 61.72946167 103.50120544 C65.56264786 103.58910188 69.39557095 103.64189631 73.22946167 103.68870544 C74.30711792 103.71384216 75.38477417 103.73897888 76.49508667 103.76487732 C84.26610714 103.83595373 89.76479171 102.9340711 96.47946167 98.81370544 C101.59830127 93.55267585 103.0014008 88.84633844 103.22946167 81.50120544 C103.0135379 74.7715814 101.9913432 69.8939111 97.26852417 64.98167419 C92.38130191 60.67744545 88.89511761 59.24492567 82.43258667 59.30589294 C81.22731323 59.31233826 80.02203979 59.31878357 78.78024292 59.32542419 C77.52598511 59.34218201 76.27172729 59.35893982 74.97946167 59.37620544 C73.70973511 59.38522888 72.44000854 59.39425232 71.13180542 59.40354919 C67.99750074 59.42711539 64.86357626 59.46001712 61.72946167 59.50120544 Z " fill="#21819E" transform="translate(469.2705383300781,1240.498794555664)"/>
<path d="M0 0 C23.3671456 -0.41122306 45.44674273 4.89582585 63.5859375 20.12109375 C64.5759375 20.84296875 65.5659375 21.56484375 66.5859375 22.30859375 C81.01564204 34.66552306 89.42183981 55.70603423 91.5859375 74.12109375 C91.73461224 77.70323115 91.74301916 81.28229811 91.74707031 84.8671875 C91.75203522 85.92676163 91.75700012 86.98633575 91.76211548 88.07801819 C91.77667772 91.57155009 91.7835305 95.06503652 91.7890625 98.55859375 C91.79330357 100.35780273 91.79330357 100.35780273 91.79763031 102.19335938 C91.81260191 108.54541238 91.82184318 114.89744282 91.82617188 121.24951172 C91.83164222 127.77776626 91.85564595 134.30581074 91.88414383 140.83399963 C91.90286862 145.88210633 91.90798111 150.93016352 91.90950775 155.978302 C91.91251445 158.38299707 91.92047504 160.78769168 91.93369293 163.19235229 C92.07476981 190.83906233 87.99531073 213.28035916 68.2109375 233.99609375 C61.26615953 240.65069994 48.80388434 251.12109375 38.5859375 251.12109375 C38.60164795 252.04446533 38.6173584 252.96783691 38.63354492 253.91918945 C38.68468582 257.34649264 38.72229285 260.77339017 38.75073242 264.20092773 C38.76581518 265.68406574 38.78628439 267.16715919 38.81225586 268.65014648 C38.84866366 270.7825012 38.86566823 272.9142661 38.87890625 275.046875 C38.8946167 276.32989502 38.91032715 277.61291504 38.92651367 278.93481445 C38.5859375 282.12109375 38.5859375 282.12109375 37.44540405 283.79696655 C34.76982087 285.70225087 32.75939024 285.49526577 29.49389648 285.4934082 C28.23927109 285.49963699 26.98464569 285.50586578 25.69200134 285.51228333 C24.32200727 285.50359617 22.95201707 285.49427829 21.58203125 285.484375 C20.17863465 285.48385637 18.77523731 285.48437417 17.37184143 285.48588562 C14.43211 285.48579593 11.49265301 285.47537246 8.55297852 285.45727539 C4.78097002 285.43456717 1.0093618 285.43404814 -2.76269627 285.44079304 C-5.65971956 285.44413069 -8.55665122 285.43750719 -11.45365715 285.4276638 C-12.84475157 285.42380953 -14.23585618 285.42266453 -15.62695503 285.42424965 C-17.56846523 285.42461958 -19.5099621 285.4105393 -21.45141602 285.39575195 C-23.10996361 285.38884087 -23.10996361 285.38884087 -24.80201721 285.38179016 C-27.4140625 285.12109375 -27.4140625 285.12109375 -29.4140625 283.12109375 C-29.73291016 280.04833984 -29.73291016 280.04833984 -29.828125 276.14453125 C-29.84749115 275.45928375 -29.8668573 274.77403625 -29.8868103 274.06802368 C-29.94663081 271.87750731 -29.99300006 269.68693845 -30.0390625 267.49609375 C-30.07724013 266.01169573 -30.11629174 264.52731991 -30.15625 263.04296875 C-30.25233334 259.4025469 -30.33635532 255.76195939 -30.4140625 252.12109375 C-31.95513672 251.3940625 -31.95513672 251.3940625 -33.52734375 250.65234375 C-54.52506927 240.57018319 -69.88901981 227.07163519 -78.421875 205.00390625 C-82.05810699 194.43879124 -83.56236292 184.69719933 -83.57519531 173.57446289 C-83.58016022 172.5360022 -83.58512512 171.4975415 -83.59024048 170.4276123 C-83.60480168 167.00381801 -83.61165573 163.58007013 -83.6171875 160.15625 C-83.62001488 158.98009062 -83.62284225 157.80393124 -83.62575531 156.59213066 C-83.64072734 150.36211804 -83.64996803 144.13212844 -83.65429688 137.90209961 C-83.6597638 131.50397796 -83.68376008 125.10607101 -83.71226883 118.7080164 C-83.73100928 113.75680452 -83.73610695 108.80564306 -83.73763275 103.85439873 C-83.74063652 101.49797841 -83.74858686 99.1415585 -83.76181793 96.78517342 C-83.90589624 69.14190204 -79.60181954 44.08743374 -59.5390625 23.68359375 C-43.50923665 8.0746047 -22.03930124 0.78171435 0 0 Z M-11.7890625 67.05859375 C-15.23481971 73.5525208 -15.70778399 78.99805258 -15.6887207 86.20629883 C-15.69383163 87.20708969 -15.69894257 88.20788055 -15.70420837 89.23899841 C-15.7180811 92.53960186 -15.71714909 95.8399959 -15.71484375 99.140625 C-15.7187324 101.44219541 -15.72306742 103.7437651 -15.72782898 106.04533386 C-15.73528655 110.86789273 -15.73500356 115.69037838 -15.72973633 120.51293945 C-15.72394723 126.67975509 -15.74086169 132.84626985 -15.764081 139.01303577 C-15.77884563 143.76667521 -15.77968623 148.52024268 -15.77657127 153.27390099 C-15.77708327 155.54678632 -15.78229809 157.81967581 -15.79238319 160.09253883 C-15.80478077 163.27779033 -15.79793531 166.46246219 -15.78637695 169.64770508 C-15.79402069 170.57839813 -15.80166443 171.50909119 -15.80953979 172.46798706 C-15.75160822 179.72581895 -14.61066283 186.60371921 -10.1015625 192.49609375 C-5.64361053 196.85037242 -2.15155918 198.29672659 4.0234375 198.55859375 C10.5527707 198.36342346 14.17503088 196.53200037 18.8359375 191.87109375 C23.27284032 184.89881789 24.02620999 178.76834182 23.97412109 170.70117188 C23.97937805 169.6887291 23.98463501 168.67628632 23.99005127 167.63316345 C24.00319159 164.30606388 23.99453412 160.97944769 23.984375 157.65234375 C23.98639744 155.3288158 23.9893103 153.00528848 23.99307251 150.6817627 C23.99748779 145.81984392 23.99109028 140.95809087 23.97705078 136.09619141 C23.9599596 129.87550921 23.96980502 123.65521538 23.98776817 117.43454742 C23.99862739 112.63890679 23.99514981 107.84335768 23.9873848 103.04771423 C23.98538871 100.75447035 23.98782119 98.46121807 23.99482346 96.16798401 C24.00247296 92.95877178 23.99078421 89.75018172 23.97412109 86.54101562 C23.98019379 85.60051865 23.98626648 84.66002167 23.99252319 83.69102478 C23.9094657 75.02224532 21.81062137 68.34577762 15.5859375 62.12109375 C6.13630136 55.37135365 -4.95206252 58.6023043 -11.7890625 67.05859375 Z " fill="#21819E" transform="translate(738.4140625,1237.87890625)"/>
<path d="M0 0 C1.57961031 1.50305407 3.14303658 3.02335315 4.6875 4.5625 C5.73357422 5.57376953 5.73357422 5.57376953 6.80078125 6.60546875 C25.65816208 26.1219425 27.00647137 52.61697075 26.98828125 78.203125 C26.992177 80.49794593 26.99651346 82.79276614 27.00126648 85.08758545 C27.00869627 89.88181909 27.00846135 94.67597905 27.00317383 99.47021484 C26.99738848 105.56990308 27.01430382 111.66928674 27.0375185 117.76892471 C27.0523556 122.50485962 27.05311397 127.2407229 27.05000877 131.97667694 C27.05051714 134.2234126 27.05566229 136.47015279 27.06582069 138.71686554 C27.13660201 156.56021896 26.24495681 173.06169172 18.6875 189.5625 C18.26855469 190.48289062 17.84960938 191.40328125 17.41796875 192.3515625 C7.69661531 211.79426938 -9.82834978 224.73337238 -30.03515625 231.87890625 C-57.47461766 239.83194801 -88.99534661 238.47748505 -114.3125 224.5625 C-118.19458128 222.12480249 -121.7663702 219.46229087 -125.3125 216.5625 C-126.00472656 216.04429687 -126.69695312 215.52609375 -127.41015625 214.9921875 C-142.85107518 202.77452202 -151.27629465 182.44860232 -153.57573414 163.37951851 C-154.20607538 157.49293349 -154.46093392 151.69455465 -154.45776367 145.77685547 C-154.46112228 144.85499954 -154.4644809 143.93314362 -154.46794128 142.98335266 C-154.47736286 139.96545018 -154.47939012 136.94760373 -154.48046875 133.9296875 C-154.48368805 131.80754576 -154.48705261 129.68540423 -154.49055481 127.56326294 C-154.49652458 123.12355028 -154.49839699 118.68385701 -154.49780273 114.24414062 C-154.49770138 108.59609797 -154.51133591 102.94818177 -154.52857494 97.30016899 C-154.53977567 92.9177088 -154.54171946 88.53527836 -154.54119301 84.15280533 C-154.54236168 82.07271007 -154.54671972 79.99261375 -154.55452538 77.91253281 C-154.65828874 47.39990512 -154.65828874 47.39990512 -149.6875 33.375 C-149.42880127 32.62798828 -149.17010254 31.88097656 -148.90356445 31.11132812 C-141.97878472 12.07990524 -127.437681 -3.5681634 -109.3125 -12.4375 C-100.65143763 -16.07684566 -91.64680719 -19.17654973 -82.3125 -20.4375 C-81.57773437 -20.54707031 -80.84296875 -20.65664062 -80.0859375 -20.76953125 C-51.77879184 -24.31975855 -21.91235255 -19.11503095 0 0 Z M-80.125 44.375 C-85.8347374 52.69490306 -86.46316389 60.87983942 -86.45776367 70.64379883 C-86.46112228 71.52608658 -86.4644809 72.40837433 -86.46794128 73.31739807 C-86.47739709 76.21812367 -86.4793917 79.11879122 -86.48046875 82.01953125 C-86.48368509 84.04823327 -86.48704945 86.07693506 -86.49055481 88.1056366 C-86.49653267 92.35306333 -86.49839609 96.60046975 -86.49780273 100.84790039 C-86.4977012 106.27130098 -86.51135081 111.69457041 -86.52857494 117.11793995 C-86.53973253 121.30715017 -86.54172079 125.49632905 -86.54119301 129.6855526 C-86.54236756 131.68408345 -86.54675963 133.68261525 -86.55452538 135.68113136 C-86.56440125 138.48518501 -86.56141745 141.28895873 -86.55541992 144.09301758 C-86.56384918 145.31299438 -86.56384918 145.31299438 -86.57244873 146.55761719 C-86.51881521 156.5022248 -84.9328115 164.89358124 -78.3125 172.5625 C-73.06275988 177.14179138 -67.9267621 177.92515517 -61.1640625 177.8359375 C-55.24282455 177.26814756 -51.08194972 174.6695214 -47 170.4375 C-41.65848178 163.45657361 -40.86442546 155.11789777 -40.92431641 146.58984375 C-40.91905945 145.6485965 -40.91380249 144.70734924 -40.90838623 143.73757935 C-40.89529403 140.65821221 -40.90388596 137.57937145 -40.9140625 134.5 C-40.91203867 132.34106346 -40.90912466 130.18212758 -40.90536499 128.02319336 C-40.90095622 123.51116388 -40.90732604 118.99931328 -40.92138672 114.48730469 C-40.93847755 108.72423562 -40.92862861 102.96158581 -40.91066933 97.1985321 C-40.89979238 92.74423097 -40.90329576 88.29002808 -40.9110527 83.83572388 C-40.9130439 81.7115982 -40.9106337 79.5874634 -40.90361404 77.46334839 C-40.895935 74.48704639 -40.90769374 71.51140916 -40.92431641 68.53515625 C-40.91824371 67.67044708 -40.91217102 66.80573792 -40.90591431 65.91482544 C-40.99981814 56.76937484 -42.98321426 48.84738842 -49.4375 42.19140625 C-54.62039172 37.68876907 -59.96706169 37.00564804 -66.59765625 37.21484375 C-72.39113197 37.95674208 -76.04362324 40.29362324 -80.125 44.375 Z " fill="#21819E" transform="translate(414.3125,1259.4375)"/>
<path d="M0 0 C1.23137695 -0.00945648 2.46275391 -0.01891296 3.73144531 -0.02865601 C5.07617514 -0.0232863 6.42090204 -0.01713334 7.765625 -0.01025391 C9.1442073 -0.01227487 10.52278855 -0.0151865 11.90136719 -0.01895142 C14.78981714 -0.02337375 17.67798867 -0.01694699 20.56640625 -0.00292969 C24.26892254 0.01416261 27.97078646 0.00432088 31.67327881 -0.01364708 C34.51974402 -0.02448762 37.36605455 -0.02103744 40.21252441 -0.0132637 C41.57767819 -0.01126242 42.94284602 -0.01371849 44.3079834 -0.02070236 C46.2157362 -0.02832031 48.12353824 -0.01465046 50.03125 0 C51.65981934 0.00358017 51.65981934 0.00358017 53.32128906 0.00723267 C56.015625 0.38818359 56.015625 0.38818359 57.66078281 1.47842121 C59.71717766 4.37708023 59.38905691 6.80094387 59.38743591 10.32533264 C59.39317276 11.39052656 59.39317276 11.39052656 59.3990255 12.47723955 C59.40833095 14.86319855 59.39630637 17.24858033 59.38452148 19.63452148 C59.38698881 21.34285727 59.39082652 23.05119155 59.39593506 24.75952148 C59.40428413 28.44273471 59.40345586 32.1257934 59.39575005 35.80900764 C59.38417782 41.63832385 59.3963223 47.46744089 59.41236877 53.29673767 C59.44858821 67.78216337 59.45479756 82.2675849 59.45227051 96.75305176 C59.45055763 107.99828458 59.45774265 119.24335499 59.49224907 130.4885425 C59.50900975 136.27719704 59.50727595 142.06545522 59.49142635 147.85410798 C59.48560914 151.46672317 59.4964066 155.07915255 59.51167297 158.69173431 C59.51538422 160.35975749 59.51233474 162.02781245 59.50180244 163.6958065 C59.22807535 177.81283618 59.22807535 177.81283618 65.49829769 190.05580235 C70.60817669 194.56748179 75.39388221 194.80319862 81.93359375 194.72412109 C86.59084088 194.21648706 89.71514268 192.70457186 93.015625 189.38818359 C97.16497476 183.27908263 98.13912887 177.57562464 98.15365601 170.27694702 C98.15788793 169.20200468 98.15788793 169.20200468 98.16220534 168.10534632 C98.17053865 165.70400898 98.17188847 163.30271781 98.17333984 160.90136719 C98.17800878 159.17990489 98.18315248 157.45844383 98.18873596 155.73698425 C98.20000998 152.03035981 98.20844731 148.32374338 98.21485519 144.61710739 C98.22553188 138.76054636 98.2457737 132.90404315 98.26797485 127.04751587 C98.32991724 110.39417148 98.38398128 93.74083109 98.41699219 77.08740234 C98.4353042 67.88969407 98.46419213 58.69208315 98.5049969 49.4944464 C98.52611552 44.62516242 98.54153109 39.75600136 98.54380417 34.88666916 C98.54594261 30.31149399 98.56172891 25.73657522 98.58819389 21.16147804 C98.59541779 19.47881926 98.59747301 17.79612952 98.59409142 16.11345863 C98.59022359 13.82381559 98.60456202 11.53500252 98.62362671 9.24545288 C98.62693686 7.96198156 98.630247 6.67851025 98.63365746 5.35614586 C98.75970675 4.37671831 98.88575603 3.39729076 99.015625 2.38818359 C102.49991253 0.06532524 103.88411356 0.13099179 108 0.11352539 C109.23137695 0.10399338 110.46275391 0.09446136 111.73144531 0.0846405 C113.07617216 0.08490191 114.42089903 0.08583883 115.765625 0.08740234 C117.14420704 0.08351537 118.52278789 0.0791807 119.90136719 0.07441711 C122.78975305 0.06695702 125.67801668 0.06724491 128.56640625 0.07250977 C132.26889115 0.07830889 135.97087653 0.06136234 139.67327881 0.03816509 C142.51972379 0.0234392 145.36604809 0.02255437 148.21252441 0.02567482 C149.57768749 0.02516118 150.94285724 0.01991537 152.3079834 0.0098629 C154.21570017 -0.00246259 156.12351782 0.00621908 158.03125 0.01586914 C159.11696289 0.01523972 160.20267578 0.01461029 161.32128906 0.01396179 C164.015625 0.38818359 164.015625 0.38818359 165.66021156 1.47857189 C167.71554921 4.37429117 167.39344685 6.79438408 167.39657593 10.31619263 C167.4012559 11.0254665 167.40593587 11.73474037 167.41075766 12.46550739 C167.4227498 14.84893839 167.41323372 17.23179882 167.40380859 19.61523438 C167.40787294 21.3220656 167.41321405 23.02889419 167.41973877 24.73571777 C167.43344893 29.38122676 167.42809469 34.02653645 167.41860151 38.67204905 C167.41100683 43.54348698 167.4180516 48.41490783 167.42276001 53.28634644 C167.42822538 61.48292089 167.42101308 69.6794144 167.40673828 77.87597656 C167.39048643 87.31597834 167.39564248 96.75578497 167.4122175 106.19578183 C167.42590152 114.31750139 167.42771617 122.43916268 167.41990149 130.56089008 C167.41525292 135.40328778 167.41452018 140.24559436 167.42451096 145.08798599 C167.43327657 149.65660798 167.42698657 154.22498333 167.40982819 158.7935791 C167.40591063 160.45704619 167.40691448 162.12053457 167.41361618 163.78399277 C167.47184169 179.72617928 165.72492629 194.71999767 159.015625 209.38818359 C158.59667969 210.32017578 158.17773438 211.25216797 157.74609375 212.21240234 C153.80615933 220.17175113 148.22470386 226.16121114 142.015625 232.38818359 C141.36851562 233.05849609 140.72140625 233.72880859 140.0546875 234.41943359 C122.76296492 251.03156882 96.74215374 255.00777132 73.84375 254.57177734 C50.75296174 253.84511258 28.58071413 245.7864301 12.015625 229.38818359 C-1.7617705 213.86435767 -9.07751958 194.51541508 -9.12481689 173.809021 C-9.12778802 173.0782844 -9.13075914 172.3475478 -9.1338203 171.59466767 C-9.14244287 169.1635231 -9.14400998 166.73242814 -9.14550781 164.30126953 C-9.15014019 162.55143124 -9.15516542 160.80159394 -9.16055298 159.05175781 C-9.17362996 154.31245299 -9.18011157 149.5731623 -9.18456364 144.83384228 C-9.18749919 141.87338001 -9.19160468 138.91292157 -9.19606781 135.95246124 C-9.20972418 126.69029183 -9.21940254 117.42813122 -9.2232697 108.16595244 C-9.2277599 97.47112125 -9.24536004 86.77641725 -9.2742703 76.08162475 C-9.29585005 67.81228807 -9.30597183 59.5429873 -9.30731082 51.27362275 C-9.3083606 46.3344624 -9.31430619 41.39542194 -9.33213043 36.4562912 C-9.34854927 31.81710002 -9.35079695 27.17811971 -9.34199142 22.53890991 C-9.34121798 20.83407274 -9.34560394 19.1292245 -9.35544968 17.42441559 C-9.36807666 15.10249293 -9.36234388 12.78132795 -9.35186768 10.45941162 C-9.35333424 9.15863552 -9.3548008 7.85785942 -9.3563118 6.51766586 C-8.984375 3.38818359 -8.984375 3.38818359 -7.6298027 1.47004128 C-5.11225713 -0.18522806 -2.98767193 0.00656796 0 0 Z " fill="#21819E" transform="translate(857.984375,1240.61181640625)"/>
<path d="M0 0 C1.10555489 -0.00810448 1.10555489 -0.00810448 2.23344421 -0.01637268 C4.66507351 -0.02886106 7.09551913 -0.01237104 9.52709961 0.00561523 C11.21813519 0.00546026 12.90917114 0.00397161 14.60020447 0.00120544 C18.14183275 -0.00017853 21.68305605 0.0123803 25.22460938 0.03515625 C29.76671 0.06356283 34.30813883 0.06079778 38.85028934 0.04806614 C42.3409958 0.04111571 45.83154662 0.04889055 49.3222332 0.06132317 C50.99719077 0.06584234 52.67216501 0.0661704 54.3471241 0.06225777 C56.68619247 0.05935115 59.02433039 0.07582414 61.36328125 0.09765625 C62.05686737 0.0931546 62.75045349 0.08865295 63.46505737 0.08401489 C66.17666353 0.12612317 68.15163595 0.20176825 70.46362305 1.6920929 C71.94958358 4.0236378 72.60905283 6.18502995 73.32373047 8.85961914 C73.62541641 9.96961273 73.92710236 11.07960632 74.2379303 12.22323608 C74.71751442 14.05104111 74.71751442 14.05104111 75.20678711 15.91577148 C75.5553598 17.21543159 75.90474019 18.51487529 76.25486755 19.81411743 C77.1962873 23.31992237 78.12399037 26.82921056 79.04763031 30.33973694 C79.60861805 32.47009355 80.17227613 34.59972446 80.73687744 36.72912598 C83.35450495 46.60485829 85.94252559 56.48823384 88.52504349 66.37319565 C90.35489262 73.37358167 92.1902493 80.37252769 94.02490044 87.37165642 C94.50411036 89.19984398 94.98326276 91.02804662 95.46235847 92.85626411 C100.92666018 113.70676598 106.42822291 134.54737772 111.93831635 155.38581848 C112.67720955 158.18075938 113.41572697 160.9757993 114.15411377 163.77087402 C118.65080196 180.79211466 123.14842506 197.81279083 127.73413086 214.81030273 C128.02978439 215.90837753 128.32543793 217.00645233 128.63005066 218.13780212 C129.91921016 222.924988 131.21355278 227.71058404 132.52148438 232.49267578 C132.94806992 234.07114429 133.37443901 235.64967132 133.80053711 237.22827148 C133.98989838 237.91018051 134.17925964 238.59208954 134.37435913 239.29466248 C135.30270588 242.76060791 136.01147144 245.91178608 135.61694336 249.50170898 C132.85403276 252.26461958 131.24782264 251.7551864 127.37890625 251.76049805 C125.41160301 251.76995453 125.41160301 251.76995453 123.40455627 251.77960205 C121.96623603 251.77602201 120.527917 251.77191998 119.08959961 251.76733398 C117.619908 251.76868079 116.15021682 251.77062146 114.68052673 251.77313232 C111.59784714 251.77608378 108.51528334 251.77178594 105.43261719 251.76245117 C101.48021996 251.75106654 97.52809464 251.75760955 93.57570744 251.7695961 C90.53968761 251.77682271 87.50373226 251.77452293 84.46771049 251.76934052 C83.01045131 251.76800571 81.55318628 251.76964583 80.09593391 251.77429962 C78.05874874 251.77937658 76.02154308 251.77026688 73.984375 251.76049805 C72.82458633 251.75890686 71.66479767 251.75731567 70.46986389 251.75567627 C67.61694336 251.50170898 67.61694336 251.50170898 64.61694336 249.50170898 C63.6496582 246.53662109 63.6496582 246.53662109 62.82788086 242.77905273 C62.67912506 242.11837296 62.53036926 241.45769318 62.37710571 240.7769928 C61.90396479 238.66674561 61.44729161 236.55336019 60.99194336 234.43920898 C60.52657164 232.32224744 60.05781997 230.20610369 59.58535767 228.0907135 C59.15881952 226.17439266 58.74190993 224.25593634 58.32543945 222.33740234 C57.90427221 219.61749872 57.90427221 219.61749872 56.61694336 218.50170898 C54.92892351 218.40817735 53.23699128 218.38426108 51.54638672 218.38818359 C50.46534164 218.38825912 49.38429657 218.38833466 48.27049255 218.38841248 C47.09446976 218.39357376 45.91844696 218.39873505 44.70678711 218.40405273 C43.50961563 218.40546768 42.31244415 218.40688263 41.07899475 218.40834045 C37.2374527 218.41395919 33.39596793 218.42651488 29.55444336 218.43920898 C26.95743899 218.44422157 24.36043371 218.44878489 21.76342773 218.45288086 C15.38124657 218.46393471 8.99909906 218.48069106 2.61694336 218.50170898 C1.25334862 222.39189055 0.19624179 226.18266542 -0.56665039 230.23217773 C-0.77225586 231.28211914 -0.97786133 232.33206055 -1.18969727 233.41381836 C-1.61230837 235.60799427 -2.02892094 237.80333356 -2.43969727 239.99975586 C-2.75003906 241.56886719 -2.75003906 241.56886719 -3.06665039 243.16967773 C-3.33819946 244.59703247 -3.33819946 244.59703247 -3.61523438 246.05322266 C-4.48988721 248.8423779 -5.05143589 249.76716567 -7.38305664 251.50170898 C-10.19128418 251.88265991 -10.19128418 251.88265991 -13.64282227 251.88989258 C-14.93426147 251.89934906 -16.22570068 251.90880554 -17.55627441 251.91854858 C-18.96728827 251.9131789 -20.37829934 251.90702595 -21.78930664 251.90014648 C-23.23514961 251.90216733 -24.68099158 251.90507887 -26.12683105 251.90884399 C-29.15651151 251.91326687 -32.18592657 251.90683775 -35.21557617 251.89282227 C-39.0996844 251.87573003 -42.98317076 251.88557146 -46.86725616 251.90353966 C-49.85268848 251.91437868 -52.83797328 251.91093069 -55.82341003 251.90315628 C-57.25554986 251.90115458 -58.68770307 251.90361251 -60.11982727 251.91059494 C-62.12097926 251.91821042 -64.12217818 251.9045456 -66.12329102 251.88989258 C-67.26229858 251.8875058 -68.40130615 251.88511902 -69.5748291 251.88265991 C-72.38305664 251.50170898 -72.38305664 251.50170898 -74.33679199 250.41494751 C-76.94066679 245.65340502 -73.78473863 238.78021787 -72.44726562 233.78173828 C-72.2510666 233.03576732 -72.05486757 232.28979635 -71.85272312 231.52122021 C-71.19866305 229.03843629 -70.53893474 226.55719606 -69.87915039 224.07592773 C-69.40804352 222.29273854 -68.93726743 220.50946192 -68.46679688 218.72610474 C-67.18987664 213.89020171 -65.90787482 209.05565905 -64.62482834 204.22137833 C-63.54581697 200.1534182 -62.46970211 196.08469422 -61.39358616 192.01596737 C-52.57417872 158.67190487 -43.71536431 125.33801954 -34.79980469 92.01953125 C-34.06248755 89.26374917 -33.32518149 86.50796413 -32.58790016 83.75217247 C-32.10741417 81.95626053 -31.6268735 80.16036321 -31.14627647 78.36448097 C-28.1424659 67.1367658 -25.16874578 55.90177225 -22.23355293 44.65592766 C-21.02321004 40.02465448 -19.80386366 35.39574044 -18.58596802 30.76644897 C-17.95898065 28.37160824 -17.33683525 25.97549372 -16.71994019 23.57803345 C-15.89566865 20.37483492 -15.05539714 17.1762606 -14.21118164 13.97827148 C-13.86444145 12.60104668 -13.86444145 12.60104668 -13.51069641 11.19599915 C-13.28713974 10.36182968 -13.06358307 9.52766022 -12.83325195 8.66821289 C-12.64804993 7.95371979 -12.4628479 7.23922668 -12.27203369 6.50308228 C-9.66565784 0.63529185 -5.97535446 -0.08353488 0 0 Z M28.61694336 88.50170898 C25.00249334 102.18122 22.05914376 116.00172912 19.13330078 129.84204102 C18.4358888 133.13168915 17.7305916 136.41943722 17.02138042 139.70654678 C16.34111384 142.871012 15.67321924 146.03808839 15.00366211 149.20483398 C14.74856369 150.38080139 14.49346527 151.5567688 14.2306366 152.76837158 C14.00322281 153.85760925 13.77580902 154.94684692 13.54150391 156.0690918 C13.23650215 157.50227753 13.23650215 157.50227753 12.92533875 158.9644165 C12.43071091 161.77059769 12.43071091 161.77059769 13.61694336 165.50170898 C24.17694336 165.50170898 34.73694336 165.50170898 45.61694336 165.50170898 C47.14184542 162.45190487 45.99645167 159.69804537 45.29345703 156.49755859 C45.06440926 155.41688362 45.06440926 155.41688362 44.83073425 154.31437683 C44.32245436 151.92604541 43.80407271 149.54004084 43.28491211 147.15405273 C42.92919661 145.50028455 42.57383919 143.8464393 42.21882629 142.19252014 C41.47254765 138.72386011 40.72114062 135.25635914 39.96630859 131.78955078 C38.99741472 127.33707586 38.04244964 122.8817464 37.09144115 118.42542171 C36.36055483 115.00901552 35.62174121 111.59436127 34.88054848 108.18017769 C34.52509435 106.53762296 34.1722789 104.894495 33.8221035 103.25080681 C33.33241077 100.95750055 32.83198386 98.6668018 32.32861328 96.37646484 C32.18462097 95.69124756 32.04062866 95.00603027 31.89227295 94.30004883 C31.53129664 92.68491912 31.08240652 91.08988149 30.61694336 89.50170898 C29.95694336 89.17170898 29.29694336 88.84170898 28.61694336 88.50170898 Z " fill="#21819E" transform="translate(1100.383056640625,1240.498291015625)"/>
<path d="M0 0 C1.30823227 -0.01591187 2.61646454 -0.03182373 3.96434021 -0.04821777 C5.39427639 -0.04948499 6.82421389 -0.04966192 8.25415039 -0.04882812 C9.72001946 -0.05592857 11.18588573 -0.0636274 12.65174866 -0.07189941 C15.72429123 -0.08534928 18.79657684 -0.08691091 21.86914062 -0.08105469 C25.80499228 -0.07515859 29.73961034 -0.10574178 33.67522335 -0.14617157 C36.70274996 -0.17203324 39.72997895 -0.17492747 42.75760078 -0.17127991 C44.20848249 -0.17297271 45.65937771 -0.18263085 47.11015129 -0.20042419 C49.13972027 -0.22257637 51.16957998 -0.20971456 53.19921875 -0.1953125 C54.3537706 -0.19736694 55.50832245 -0.19942139 56.69786072 -0.20153809 C59.66430664 0.41992188 59.66430664 0.41992188 61.92822266 2.55613708 C63.79402747 5.63390492 64.87333319 8.40910124 65.90673828 11.85571289 C66.19299324 12.79349831 66.19299324 12.79349831 66.48503113 13.75022888 C67.10918021 15.8049545 67.71696986 17.8641226 68.32446289 19.92382812 C68.75904901 21.36794636 69.19456614 22.81178472 69.63096619 24.25535583 C70.54293986 27.28028091 71.44753029 30.30727532 72.34619141 33.33618164 C73.48850154 37.18620487 74.64287055 41.0324628 75.80213261 44.87741184 C76.91776776 48.57917871 78.02774876 52.28263304 79.13696289 55.98632812 C79.34436663 56.67758852 79.55177036 57.36884892 79.76545906 58.08105659 C82.27952269 66.47772414 84.62883296 74.89282608 86.66430664 83.41992188 C87.32430664 83.41992188 87.98430664 83.41992188 88.66430664 83.41992188 C88.90673096 82.23599854 89.14915527 81.0520752 89.39892578 79.83227539 C90.90494862 73.06978262 92.93202054 66.45825722 94.91040039 59.82226562 C95.32652599 58.41945323 95.74246184 57.01658454 96.15821838 55.61366272 C97.02617699 52.68740262 97.89631939 49.7618036 98.76806641 46.83666992 C99.87937207 43.10710857 100.98532583 39.37598565 102.08965969 35.64435482 C102.94634482 32.75165037 103.80580768 29.85977689 104.66609383 26.96814156 C105.07474628 25.5934158 105.48257422 24.21844465 105.88952446 22.84321404 C111.75938028 3.02320611 111.75938028 3.02320611 115.66430664 0.41992188 C118.51049805 0.15922546 118.51049805 0.15922546 122.01586914 0.14526367 C123.3273291 0.13573166 124.63878906 0.12619965 125.98999023 0.11637878 C127.42309597 0.11664019 128.85620173 0.1175771 130.28930664 0.11914062 C131.7575696 0.11525395 133.22583143 0.11091934 134.6940918 0.1061554 C137.77078904 0.09869408 140.84737153 0.09898408 143.92407227 0.10424805 C147.86868189 0.11004715 151.81282266 0.09310111 155.75735474 0.06990337 C158.78909048 0.05518017 161.82071287 0.0542923 164.85247803 0.0574131 C166.30695526 0.05689932 167.76143874 0.05165092 169.21588135 0.04160118 C171.24813259 0.02928089 173.28047848 0.03795516 175.31274414 0.04760742 C176.4695166 0.046978 177.62628906 0.04634857 178.81811523 0.04570007 C181.66430664 0.41992188 181.66430664 0.41992188 183.56773376 1.77714539 C184.66430664 3.41992188 184.66430664 3.41992188 184.56103516 6.07666016 C183.45936448 10.18400518 181.96256419 13.9961157 180.31665039 17.91210938 C179.78338638 19.20451286 179.78338638 19.20451286 179.23934937 20.52302551 C178.45174838 22.43129054 177.66151759 24.33847169 176.86904907 26.24472046 C174.6213423 31.65485999 172.3966279 37.07442966 170.17211914 42.49414062 C169.42702843 44.30852379 169.42702843 44.30852379 168.66688538 46.15956116 C160.24596297 66.69731214 152.07117341 87.33561383 143.84667492 107.95255852 C143.16795113 109.65298632 142.48859264 111.35316093 141.80857563 113.05307198 C140.16726722 117.15740122 138.53554155 121.26496872 136.92536926 125.38162231 C131.88603512 138.21054988 131.88603512 138.21054988 128.73950195 144.1484375 C119.54507497 161.91797323 121.5290289 182.07522738 121.75762939 201.5637207 C121.84137703 209.44535786 121.84694226 217.32740065 121.85067368 225.20940781 C121.85947791 227.94633223 121.89083454 230.68227565 121.92581177 233.41897583 C121.93564042 235.08611784 121.94501427 236.75326262 121.95385742 238.42041016 C121.96943192 239.17562958 121.98500641 239.930849 122.00105286 240.70895386 C122.00309996 243.75725157 121.81099575 246.10206532 120.52597046 248.8865509 C117.86718338 251.0764774 116.00968453 250.93414923 112.58813477 250.95336914 C110.71103821 250.97712364 110.71103821 250.97712364 108.79602051 251.00135803 C107.42919543 250.99751683 106.06237328 250.99247793 104.69555664 250.98632812 C103.29455145 250.99156231 101.8935498 250.99783804 100.49255371 251.00511169 C97.55696017 251.01552085 94.6218512 251.0109474 91.6862793 250.99633789 C87.92288898 250.97914231 84.1610243 251.00264904 80.39780426 251.03782749 C77.50496287 251.05977987 74.61248786 251.05836567 71.71958923 251.05006218 C70.33209051 251.04924156 68.94456518 251.05612627 67.55714417 251.07083321 C65.61832247 251.08823505 63.67928107 251.07044306 61.74047852 251.05102539 C60.63700073 251.05006363 59.53352295 251.04910187 58.39660645 251.04811096 C55.66430664 250.41992188 55.66430664 250.41992188 53.78974915 248.34907532 C52.41220106 244.7637747 52.38504189 241.68881557 52.58105469 237.92236328 C52.63212068 236.38109342 52.68286037 234.83981272 52.73332214 233.29852295 C52.76557577 232.48188927 52.7978294 231.66525558 52.83106041 230.82387543 C52.99566019 226.3998972 53.08057978 221.97444665 53.16625977 217.54833984 C53.18432773 216.6162394 53.20239569 215.68413895 53.22101116 214.72379303 C53.91483377 175.69833916 50.2918542 146.50287481 32.52026367 111.25195312 C28.49309491 103.18658638 25.29927223 94.82093757 22.09790039 86.4022522 C20.45666774 82.10623521 18.759584 77.83248522 17.06665039 73.55664062 C16.55556229 72.26079292 16.55556229 72.26079292 16.03414917 70.93876648 C13.52523839 64.57969539 10.99407948 58.22966151 8.45655823 51.88195801 C6.50229862 46.99248012 4.55237793 42.10127632 2.60256958 37.21002197 C1.65066445 34.82566412 0.69665448 32.4421454 -0.259552 30.05950928 C-1.5924199 26.73776563 -2.9179142 23.41316529 -4.24194336 20.08789062 C-4.64211166 19.09618362 -5.04227997 18.10447662 -5.45457458 17.0827179 C-9.24342489 7.52626636 -9.24342489 7.52626636 -9.33569336 3.41992188 C-6.87483327 -0.22794895 -4.16782259 0.03041343 0 0 Z " fill="#21819E" transform="translate(1207.335693359375,1240.580078125)"/>
<path d="M0 0 C13.86 0 27.72 0 42 0 C42 76.56 42 153.12 42 232 C-1.89 232 -45.78 232 -91 232 C-91.33 219.026875 -91.66 206.05375 -92 192.6875 C-92.14566406 188.65233154 -92.29132813 184.61716309 -92.44140625 180.4597168 C-92.90672221 158.20624888 -90.53969307 143.53726965 -76.91619873 125.56039429 C-74.44300925 122.25575781 -72.36963019 118.79623738 -70.31640625 115.22265625 C-69.06662521 113.1683447 -67.81536799 111.11493036 -66.5625 109.0625 C-65.86050862 107.90960777 -65.15869205 106.75660908 -64.45703125 105.60351562 C-63.01904501 103.24064968 -61.58035708 100.87821343 -60.14111328 98.51611328 C-56.9419618 93.26425645 -53.75221933 88.00668672 -50.56176758 82.74954224 C-48.79011585 79.83027856 -47.01817022 76.91119336 -45.24609375 73.9921875 C-44.89525726 73.41426956 -44.54442078 72.83635162 -44.18295288 72.24092102 C-42.06962079 68.76021554 -39.95464874 65.28051269 -37.83833313 61.80162048 C-36.07917052 58.90974893 -34.32077287 56.01741258 -32.5625 53.125 C-32.21714203 52.55703705 -31.87178406 51.9890741 -31.51596069 51.40390015 C-27.36719438 44.57890068 -23.23981144 37.74162366 -19.140625 30.88671875 C-18.73589462 30.2102832 -18.33116425 29.53384766 -17.91416931 28.83691406 C-15.9605167 25.57105408 -14.00941337 22.30371873 -12.06274414 19.03369141 C-11.35049826 17.8414265 -10.6381808 16.64920435 -9.92578125 15.45703125 C-9.31130127 14.42553955 -8.69682129 13.39404785 -8.0637207 12.33129883 C-5.47730669 8.15625811 -2.72427845 4.08641767 0 0 Z " fill="#3AAFC9" transform="translate(120,14)"/>
<path d="M0 0 C3.25286089 1.36467376 4.73682347 2.64341767 6.55859375 5.6484375 C7.02015869 6.39625488 7.48172363 7.14407227 7.95727539 7.91455078 C8.44574951 8.72649902 8.93422363 9.53844727 9.4375 10.375 C10.50647458 12.11019994 11.57683286 13.84454807 12.6484375 15.578125 C13.19983398 16.47466797 13.75123047 17.37121094 14.31933594 18.29492188 C17.00259837 22.6137115 19.7806003 26.86932863 22.5625 31.125 C23.65505803 32.80070946 24.74750689 34.47649011 25.83984375 36.15234375 C26.3694873 36.96429199 26.89913086 37.77624023 27.44482422 38.61279297 C29.84632747 42.29911931 32.23629745 45.99287059 34.625 49.6875 C35.07109619 50.37730957 35.51719238 51.06711914 35.97680664 51.77783203 C36.87034502 53.15962589 37.76381864 54.54146163 38.65722656 55.92333984 C40.47728338 58.73814044 42.29828842 61.55232694 44.11938477 64.36645508 C45.04185612 65.79200364 45.96421892 67.21762245 46.88647461 68.64331055 C49.1138216 72.08636043 51.34238367 75.52860741 53.57421875 78.96875 C58.99831801 87.33379833 64.38312742 95.72311278 69.75 104.125 C76.87105168 115.26952205 84.08159578 126.35359052 91.31738281 137.42382812 C97.83861085 147.40815752 104.29842917 157.4305454 110.6875 167.5 C111.21754639 168.33241211 111.74759277 169.16482422 112.29370117 170.02246094 C112.77814697 170.78848633 113.26259277 171.55451172 113.76171875 172.34375 C114.19444092 173.02630859 114.62716309 173.70886719 115.07299805 174.41210938 C116 176 116 176 116 177 C40.43 177 -35.14 177 -113 177 C-111.63092361 173.57730902 -110.55040793 171.06108661 -108.63671875 168.05859375 C-108.1687085 167.32044434 -107.70069824 166.58229492 -107.21850586 165.82177734 C-106.71327393 165.03496582 -106.20804199 164.2481543 -105.6875 163.4375 C-105.15842041 162.60686035 -104.62934082 161.7762207 -104.08422852 160.92041016 C-98.6285963 152.37440146 -93.09452689 143.87908115 -87.55517578 135.38720703 C-85.15367267 131.70088091 -82.76365047 128.00716287 -80.375 124.3125 C-79.92527832 123.61688965 -79.47555664 122.9212793 -79.01220703 122.20458984 C-78.11505559 120.81690489 -77.21792002 119.42920968 -76.32080078 118.04150391 C-75.0265446 116.04102883 -73.73038684 114.04180003 -72.43359375 112.04296875 C-67.00666452 103.6741585 -61.61940031 95.28084441 -56.25 86.875 C-49.12325731 75.72157146 -41.90671715 64.62881741 -34.66503906 53.54980469 C-26.91879866 41.68738023 -19.27378235 29.76050481 -11.65649414 17.81494141 C-7.83575272 11.83195678 -3.96669997 5.88732983 0 0 Z " fill="#D7E26A" transform="translate(414,1002)"/>
</svg>
